<svg id="Layer_1" data-name="Layer 1" xmlns="http://www.w3.org/2000/svg" viewBox="0 0 30.18 38.25"><defs><style>.cls-1{fill:#fff;}.cls-2{fill:#ca4844;}.cls-3{fill:#e5b642;}</style></defs><title>additions</title><path class="cls-1" d="M11.8,0h0A4.56,4.56,0,0,0,9.05,1.53a1.7,1.7,0,0,0-.53,1.3c.06.55.11,1,.16,1.48A5.25,5.25,0,0,0,7.14,5s0,0,0,0C7,4.26,6.25,4,5.6,3.84a6.9,6.9,0,0,0-1.68-.22A3.38,3.38,0,0,0,3,3.73a1.13,1.13,0,0,0-.8,1.37c.08.31.16.64.25,1h0A6.81,6.81,0,0,0,.21,8.49,1.41,1.41,0,0,0,.06,9.6c.38,1.13.78,2,1.18,3l.08.18-.38.45a1.09,1.09,0,0,0-.26.92,191.14,191.14,0,0,0,4.68,22,1.2,1.2,0,0,0,.37.55L7.28,38a1.16,1.16,0,0,0,.73.26,1.28,1.28,0,0,0,.39-.07A16.66,16.66,0,0,1,15,36.91a16.78,16.78,0,0,1,6.65,1.14,1.1,1.1,0,0,0,1.11-.2l1.52-1.29a1.26,1.26,0,0,0,.36-.55,192.28,192.28,0,0,0,4.27-22.13,1.14,1.14,0,0,0-.25-.87l-.4-.5c0-.1.06-.21.1-.31.64-2,1.26-4,1.77-6.2a1.13,1.13,0,0,0-.78-1.34,4.23,4.23,0,0,0-1.28-.16c-.72,0-2.43.15-2.71,1.33a.43.43,0,0,0,0,.11,5.47,5.47,0,0,0-.61-.13c0-.22.07-.44.1-.68a1.12,1.12,0,0,0-.91-1.29,4.75,4.75,0,0,0-1-.09A4.06,4.06,0,0,0,21.49,4c0-.37-.07-.75-.1-1.17a1.14,1.14,0,0,0-1.13-1h-.09c-1.5.13-3.17.88-3.54,2.27a1,1,0,0,0,0,.38l0,.18v0l-.26.08c0-.34.07-.71.11-1.08.07-.66-.35-1.28-1.3-1.88a5.24,5.24,0,0,0-2-.77h-.09a1.15,1.15,0,0,0-.93-1H11.8"/><path class="cls-2" d="M8,37.13a17.45,17.45,0,0,1,7-1.33A17.55,17.55,0,0,1,22,37l1.52-1.28a187.33,187.33,0,0,0,4.23-22l-3.13,0c-.55,1.51-3.13,7.4-9.81,7.46S5.49,15.46,4.91,14L1.78,14A188.94,188.94,0,0,0,6.43,35.88Z"/><path class="cls-3" d="M2.63,13l2.52,0a.41.41,0,0,1,.38.27c.25.72,2.64,7.08,9.29,7S23.74,13.8,24,13.07a.42.42,0,0,1,.38-.27l2.65,0c.75-2.39,1.44-4.51,2-7-.93-.27-2.48,0-2.57.35-.15.61-.24.92-.41,1.53A3.23,3.23,0,0,0,24,6.86,29.36,29.36,0,0,1,23,12a47,47,0,0,1,.67-7c-1-.2-2.21,0-2.59.68a37.67,37.67,0,0,0-.45,3.86c-.12-2.51-.18-4-.42-6.57-1.21.12-2.33.69-2.53,1.44,0,.34.07.93.1,1.27a3.73,3.73,0,0,0-2.07.63c-.35,1.86-.35,3-.85,4.89,0,0-.23-1.48.43-7.62,0-.37-1.33-1.29-2.31-1.41-.2,1.78-.37,3.58-.53,5.35q-.17-3.15-.55-6.35A3.13,3.13,0,0,0,9.65,2.72a61.68,61.68,0,0,1,.52,7.69c-.4-2.56-.56-3.5-.92-5C8.28,5.45,6.9,6.5,7,6.85a25,25,0,0,1,.56,4.73C7,8.85,6.68,8,6,5.23a4.43,4.43,0,0,0-2.7-.4,49,49,0,0,1,1.4,6.45C4.18,9.88,3.67,8.46,3.19,7A4.67,4.67,0,0,0,1.13,9.26c.47,1.39.94,2.42,1.5,3.75"/><path class="cls-3" d="M17.1,23.62c-.9,0-1.7,1.23-2.21,3.11-.55-1.87-1.36-3.07-2.27-3.06-1.6,0-2.84,4-2.8,9H11.1c0-4.58.64-8.31,1.52-8.32s1.63,3.41,1.67,7.66h1.28c0-4.24.64-7.68,1.53-7.69s1.63,3.71,1.67,8.29h1.28c0-4.95-1.35-8.94-2.95-8.93"/></svg>