<svg id="Layer_1" data-name="Layer 1" xmlns="http://www.w3.org/2000/svg" viewBox="0 0 48.01 30.84"><defs><style>.cls-1{fill:#fff;}.cls-2{fill:#e5b742;}.cls-3{fill:#9e5549;}.cls-4{fill:#f1e5d9;}.cls-5{fill:#dbba89;}.cls-6{fill:#e9c144;}</style></defs><title>breakfast</title><path class="cls-1" d="M24.31,0A62.71,62.71,0,0,0,12.19,1C8,1.85,5.35,3.25,4.13,5.26a5.69,5.69,0,0,0-.63,3.4,6.47,6.47,0,0,0,.36,1.67,12.23,12.23,0,0,0-2,.73C.74,11.63.19,12.15,0,12.84a1.63,1.63,0,0,0,1.64,2,5.31,5.31,0,0,0,.71-.08c.19,0,.39-.07.55-.08S3,14.91,3,15a3.72,3.72,0,0,0,.91,1.84A2.14,2.14,0,0,0,5,17.41,6,6,0,0,0,5.08,19l-.23.23A5.33,5.33,0,0,0,3,23.45c.06,3.64,3.41,5,6.38,5.83a9.07,9.07,0,0,0,1.47.41,17.08,17.08,0,0,0,1.91.32,71,71,0,0,0,11.47.83,60.45,60.45,0,0,0,11.54-.92c5.38-1.14,7.79-2.15,8.83-5.41a4.37,4.37,0,0,0-.48-4.12,3.63,3.63,0,0,0-.87-.88,9.37,9.37,0,0,0,.27-1.25,14.88,14.88,0,0,0,.16-2h0a3,3,0,0,0,1.79-1.82,3,3,0,0,1,.25-.46,1.69,1.69,0,0,1,.59-.23,2.17,2.17,0,0,0,1.62-1.37,1.57,1.57,0,0,0-.2-1.41c-.18-.27-.57-.83-2.54-1.08a.13.13,0,0,0,0-.06,6.94,6.94,0,0,0-.6-4.73c-1.25-2-4-3.32-8.4-4.15A68.59,68.59,0,0,0,24.31,0"/><path class="cls-2" d="M8.45,22.31a15.53,15.53,0,0,0,2.73,5.75.65.65,0,0,0,.85.07,45.93,45.93,0,0,0,3.86-3.35c1.58-1.6,1.75-2.14,3.22-1.91a17.27,17.27,0,0,0,5.3.28c1.85-.3,3-.6,4.05-.73s.34-.58-1.25-.39c-1.26.15-3.69.52-5.35-.15s-3.05-1.82-5.07-1.24-4.45,1.21-5.7,1a10.83,10.83,0,0,0-2-.1.65.65,0,0,0-.64.79"/><path class="cls-3" d="M43.59,11.19c-.36.15-.7.47-1.3.74-1.44.63-4.3.08-5.5.25a28.33,28.33,0,0,1-3.77.68c-.77.06-7.58,0-8.36.06s-2.62.23-5,.35-6.53-.89-7.55-1c-1.3-.09-2.08.2-4.38.19a3.61,3.61,0,0,1-2.48-.82.67.67,0,0,0-.47-.1c-1.63.35-3.25,1.18-3.32,1.55-.13.66,1.09-.11,2.11.2s.68,1.79,1.39,2.49S7.4,15.31,8.69,15s5,1,6.83.77A51.86,51.86,0,0,1,22,15c2,0,5.07,1.41,7.43,1.5s6.42-2.07,7.78-2.36,4.5,1.19,6,.72c.94-.29.83-1.55,1.67-2.1s1.47-.35,1.65-.88c.12-.35-1.3-.65-3-.7"/><path class="cls-4" d="M29.92,20.36a2.94,2.94,0,0,0-.69-2.24,2.57,2.57,0,0,0-1.67-1.05A1.85,1.85,0,0,1,27.3,17c-1.86-.44-4-1.24-5-1.35-1.57-.17-5.53.66-7.08.77s-5.38-.85-6.09-.77a22.92,22.92,0,0,0-2.51.71C6.35,17.44,6.06,20.11,8,20.5L9,20.71c1,0,2.3.07,3,.13,1.08.09,5.29-1.34,6.35-1.26s2.29,1,4,1.57,3.92.07,5.12,0a7.78,7.78,0,0,1,2.16.23A8.2,8.2,0,0,0,31,21.5a1,1,0,0,1-1-1.14"/><path class="cls-5" d="M42,20.45a0,0,0,0,1,0,0,1.42,1.42,0,0,1-1.09.81,26.31,26.31,0,0,1-3.44.47l-3.8.32-2.49.37-1,.19-1.16.3c-.71.15-5.15,1.21-6.81,1.1s-3.38-.54-4-.26c-.41.19-1.64,2-3.06,2.95a24.81,24.81,0,0,0-2.27,1.86c6.85,1.19,17.39,1,22.53-.07s7-1.93,7.77-4.45c.87-2.75-1.18-3.62-1.18-3.62M9.78,27.83a18.76,18.76,0,0,1-1.81-4c0-.13-.08-.27-.11-.39-.18-.71-.33-1.65-.46-1.91l-.08-.13h0a2.76,2.76,0,0,1-1-1,.31.31,0,0,0-.47-.1A3.94,3.94,0,0,0,4.4,23.43c0,2,1.39,3.44,5.45,4.5a.2.2,0,0,1-.07-.1M24.31,1.43c7.72,0,16.84.94,19.05,4.41a5.47,5.47,0,0,1,.42,3.64,3,3,0,0,1-2.51,1.75c-1.48.15-4.13,0-5,.19s-2.7.53-3.42.58-6.44,0-8.15.07-4,.54-5.76.39-5.44-1-7.3-1-4.09.49-5.37-.17c-1.47-.76-1.8-3.95-1-5.31,2.18-3.54,10.55-4.57,19-4.57"/><path class="cls-6" d="M37.83,14.94a9.71,9.71,0,0,0-2.49.75A21.48,21.48,0,0,1,29.6,17.3,8.13,8.13,0,0,1,27.29,17a1.85,1.85,0,0,0,.26.06,2.56,2.56,0,0,1,1.67,1.05,3,3,0,0,1,.69,2.25A1.06,1.06,0,0,0,31,21.52h.47c.67,0,1.34,0,1.73-.08.84-.09,5.17-.47,5.76-.53a11.58,11.58,0,0,0,2.21-.61c1-.49,1.17-4,1-4.56-1.47-.16-3.58-.87-4.35-.8"/></svg>