<svg id="Layer_1" data-name="Layer 1" xmlns="http://www.w3.org/2000/svg" viewBox="0 0 42.64 36.74"><defs><style>.cls-1{fill:#fff;}.cls-2{fill:#7b412d;}.cls-3{fill:#e5b742;}.cls-4{fill:#acb943;}.cls-5{fill:#e6c7a6;}.cls-6{fill:#dba767;}</style></defs><title>burgers</title><path class="cls-1" d="M21.26,0A26,26,0,0,0,6.93,4.32C4,6.2,2,9,1.57,11.63a3.93,3.93,0,0,0,.77,3.22.18.18,0,0,1,.05.07A5.19,5.19,0,0,0,2,17.32a1.89,1.89,0,0,0,.31.85.2.2,0,0,1-.11,0H2.16a.92.92,0,0,1-.29-.06A1.34,1.34,0,0,0,1.24,18a1.2,1.2,0,0,0-1,.49,1.22,1.22,0,0,0-.2,1.09,3.11,3.11,0,0,0,2,2.28,4.92,4.92,0,0,0,.19.8,3.16,3.16,0,0,0,.51.91c0,.06-.07.1-.1.16a4.74,4.74,0,0,0-.68,2.6,3.43,3.43,0,0,0-.8.45,1.2,1.2,0,0,0-.43,1.34,1.22,1.22,0,0,0,.65.72,2.45,2.45,0,0,0-.21.44,1.37,1.37,0,0,0,.14,1.24,1.32,1.32,0,0,0,1,.58,7.22,7.22,0,0,0,.42,1.66,3,3,0,0,0,1.78,1.78,44.51,44.51,0,0,0,12.35,2.12c.49,0,1.09.06,1.57.07a.82.82,0,0,1,.23,0c.95,0,1.91,0,2.86,0a64.85,64.85,0,0,0,11.1-.86A29.27,29.27,0,0,0,38,34.44a3,3,0,0,0,1.73-1.87c.12-.42.24-.88.34-1.36A4.71,4.71,0,0,0,42,29.57a1.23,1.23,0,0,0,.09-1.29,1.25,1.25,0,0,0-1.11-.67,1.45,1.45,0,0,0-.3,0,1,1,0,0,1-.33.05,1.72,1.72,0,0,0,.32-1.05,5.85,5.85,0,0,0-.74-2.74,1.84,1.84,0,0,0-.31-.41,3.86,3.86,0,0,0,.58-1.12,3.47,3.47,0,0,0,.15-.91A2.82,2.82,0,0,0,42.51,20a1.2,1.2,0,0,0,0-1.19,1.22,1.22,0,0,0-1-.58,1.09,1.09,0,0,0-.4.07,1.52,1.52,0,0,0-.32-.71,1.69,1.69,0,0,0-.59-.45,3.78,3.78,0,0,0,0-2.28,3.94,3.94,0,0,0,.8-3.13,8.78,8.78,0,0,0-1.61-3.86,13.81,13.81,0,0,0-3.76-3.57A26.07,26.07,0,0,0,21.26,0"/><path class="cls-2" d="M3.15,17.21A3.94,3.94,0,0,1,3.63,15,.73.73,0,0,1,4,14.59a53.23,53.23,0,0,1,17.19-2.54A53.57,53.57,0,0,1,38.65,14.7a.71.71,0,0,1,.41.42,2.6,2.6,0,0,1-.22,2.14h0a4.11,4.11,0,0,1-1.19.08c-2.08-.1-1.19-.53-2.16-.76a7.36,7.36,0,0,0-2,0c-1.33,0-1.07-.47-1-.9s-.25-.91-1.31-.42a7.44,7.44,0,0,1-4,.61c-.93-.05-1.7-.66-3.7-.42a22.89,22.89,0,0,0-3.33.78,3.62,3.62,0,0,0-.46,0,5,5,0,0,0-2.12-.41c-1.17.15-1.71.3-2.73.45-1.22.17-2.36-.8-3.49-.77a4.55,4.55,0,0,0-2.23.78A4.69,4.69,0,0,1,6.86,17a11.77,11.77,0,0,0-1.75,0,3.82,3.82,0,0,0-1.58.7.76.76,0,0,1-.38-.57m0,9.39c1.57-.1,2.14.56,2.82.69a7.11,7.11,0,0,0,1.71.12c.8,0,2.17.32,6.13.46s5.77-.7,9.72-1.13a11.32,11.32,0,0,1,5.22.79.68.68,0,0,0,.56,0,11.49,11.49,0,0,1,1.91-.66,4.05,4.05,0,0,1,2,.37c.46.1.73-.26,1.23-.31,1-.09,1.29.57,2.15.55A3.57,3.57,0,0,0,38,27.11a2.52,2.52,0,0,1,1.12.13.66.66,0,0,0,.36-.59,4.71,4.71,0,0,0-.58-2.2,1,1,0,0,0-.82-.5c-9.74-.62-30.26-.23-33.7-.16a.93.93,0,0,0-.78.45,3.51,3.51,0,0,0-.51,2.19.51.51,0,0,0,0,.17"/><path class="cls-3" d="M24.54,29.34c-5,.36-5.89,7.31-7.29,5s-2.56-4-6.25-4.65c-1.74-.29-2.5-.94-2.47-1.13,0-.42,1-.44,2.32-.25,6.21.95,8.84-.48,11.82-.79a16.65,16.65,0,0,1,5.21.27.08.08,0,0,1,0,.16c-2,.21-2.23,1.28-3.33,1.36"/><path class="cls-4" d="M37.1,29.71h0s0,0,0,0M2.2,29.63a.2.2,0,0,0,.2.27c1.51-.26,1.33.65,2.33.9a6,6,0,0,0,2.07-.15c2-.35,1.78.68,3.26.64a4.47,4.47,0,0,0,1.64-.39.15.15,0,0,0,0-.28c-1-.35-4.13-.42-4.21-2.22a.22.22,0,0,0-.27-.21,3.9,3.9,0,0,1-2.8-.68,2.3,2.3,0,0,0-2.61.13c-.05,0,0,.11,0,.11.76,0,1.69.49,1.07,1a2.13,2.13,0,0,0-.69.9m29.62-2.09c-1-.19-2,.66-2.51.93a2.74,2.74,0,0,1-1.39.18.05.05,0,0,0,0,.09A2.07,2.07,0,0,0,29,29.2a8.4,8.4,0,0,0,2-.14c1.08,0,1.17,1.57,2.88,1.64,1.35.05,1.61-1.61,4.12-.52,1.49.65,2.64-.67,3.05-1.27a.12.12,0,0,0-.12-.18c-1.65.42-1.61-.84-2.72-.89-.84,0-.89.95-3.11,0-.62-.27-.78.17-1.64.21-.69.05-.55-.29-1.61-.48m0-11.65a.08.08,0,0,0-.11-.1,10.33,10.33,0,0,1-4.48.84c-.71-.06-1.62-.64-2.52-.67A9.2,9.2,0,0,0,20.6,17c-.07,0,0,.12,0,.12a3.83,3.83,0,0,1,1.28.16c.77.26,1.79,1.13,3,1.21a6.35,6.35,0,0,0,2.21-.26c.75-.12,1.13.26,1.78.67A5.26,5.26,0,0,0,33,19a14.15,14.15,0,0,0,2-1.79A.08.08,0,0,0,35,17a5.56,5.56,0,0,1-2.93-.1c-.58-.27-.34-.71-.22-1m-20.55.16c-.86,0-1.69.9-2.25,1.12a5.31,5.31,0,0,1-1.3.26s-.06.06,0,.08a3.42,3.42,0,0,0,2.26.78c2.29-.4,3.09.84,4,.89,1.38.09,1.9-.5,2.91-.14a1.47,1.47,0,0,0,1.65-.36c.88-.72,1.18-.43,2.06-.79a.11.11,0,0,0,0-.22,2,2,0,0,1-.77-.28,3.2,3.2,0,0,0-2-.82c-1.14,0-1,.39-3.31.47-1.24,0-1.88-1-3.21-1M6.09,20a3.43,3.43,0,0,1,2-1.24.11.11,0,0,0,0-.2,4,4,0,0,0-2.76-.94c-1.87.27-1.72,1.8-3.25,1.71a2,2,0,0,1-.8-.21.11.11,0,0,0-.16.13c.15.56.61,1.61,1.69,1.56.8-.05,1-.43,1.49-.51s1,.54,1.77-.3m28.69.37c1.56.05,2.12-.95,4.2-.13a2.08,2.08,0,0,0,2.51-.7c0-.07,0-.15-.09-.11-.47.21-1.72.46-1.49-.56.08-.34,0-.77-.82-.7a5.25,5.25,0,0,1-1.45.11,4.68,4.68,0,0,0-1.71-.46c-1.36,0-1.58,1.81-3.45,1.83a.07.07,0,0,0,0,.13,5,5,0,0,0,2.33.59"/><path class="cls-5" d="M12.38,19.29a0,0,0,0,1,0,.06c-.75.23-1.33,1.27-2.52,1.27C8.4,20.61,8,20,7.09,19.81c0,0,0-.06,0-.07a6.43,6.43,0,0,0,1-.32,5.07,5.07,0,0,1,2-.64,7.59,7.59,0,0,1,2.26.51m15-.49c-4,1.19-3.76-1-6.08-.61-.38.06-.88.6-1.7.61a.5.5,0,0,0-.55.36c-.13.37.67.18,1.95.87.64.35.94.95,1.55,1,.82,0,1.37-.74,1.91-.78s.89,0,1.48-.06c.94-.13,2.24-1.6,1.44-1.36M23,30.62a12.77,12.77,0,0,1,2.78.32c1,.42,1.34.89,2,.94,1.37.09,1.46-1.43,2.64-1.67s.63-.74-.84-.34-1.55-.79-2.72-.69c-.71.06-.8.91-2.55.86-1-.05-1.58.43-1.31.58"/><path class="cls-6" d="M35,5.28a24.74,24.74,0,0,0-27.43,0C3.25,8,1.73,12.41,3.19,14.11a.31.31,0,0,0,.34.09,48.6,48.6,0,0,1,17.73-3.07A48.72,48.72,0,0,1,39,14.22a.24.24,0,0,0,.25-.06c1.54-1.66,0-6.11-4.31-8.88M24.06,2.88c.65.18,0,1-.29,1.39a.1.1,0,0,1-.18,0c-.08-.46-.2-1.54.47-1.34M8,10.48a.11.11,0,0,1-.16-.1c.08-.46.32-1.52.9-1.11s-.34,1-.74,1.21M10.35,6.6c-.48,0-1.53-.25-1.15-.85s1,.3,1.25.7c0,.08,0,.17-.1.15m2.92,2.82c-.68-.09-.15-1,.1-1.42a.1.1,0,0,1,.18,0c.15.45.42,1.49-.28,1.4M14.14,5c-.67,0-.34-1-.16-1.42a.12.12,0,0,1,.2,0c.21.42.67,1.41,0,1.43M16,7.07a.11.11,0,0,1-.18,0c-.11-.46-.32-1.51.37-1.38s.09,1-.19,1.42M18.78,9.6c-.45-.12-1.47-.48-1-1s.94.44,1.13.88a.09.09,0,0,1-.12.13m-.85-5.87a.11.11,0,0,1-.07-.18c.34-.34,1.15-1.06,1.38-.38s-.84.6-1.31.56m2.72,3.38c-.08,0-.16-.06-.13-.13.18-.44.65-1.42,1.13-.89s-.56.89-1,1m3.94,1.46c-.19.43-.69,1.39-1.15.85s.58-.86,1-1a.1.1,0,0,1,.13.13m2.59-1.2c0,.08-.15,0-.18,0-.14-.45-.42-1.5.28-1.41s.15,1-.1,1.43M28.9,4.61c-.41.53-1-.39-1.19-.8a.1.1,0,0,1,.11-.15c.46.1,1.51.38,1.08,1m1.38,4.85c-.62.29-.69-.78-.69-1.25a.1.1,0,0,1,.16-.08c.38.29,1.17,1,.53,1.33m1.89-3c-.37-.28-1.19-1-.56-1.32s.71.77.72,1.24a.1.1,0,0,1-.16.08M35.3,9.09c-.24.4-.87,1.28-1.25.67s.69-.77,1.15-.83a.1.1,0,0,1,.1.16m3.86,12a2.36,2.36,0,0,1-.09,1,2.61,2.61,0,0,1-.48.87.85.85,0,0,1-.71.31c-16.08-.71-31.05-.16-33.59-.06a.75.75,0,0,1-.64-.28,2.59,2.59,0,0,1-.37-.65,3.22,3.22,0,0,1-.17-.88c.29-.08.7-.23,1-.3s.78.05,1.36-.07,1.22-.62,1.67-.54a5.46,5.46,0,0,0,2.65.77,4.34,4.34,0,0,0,2.49-1,2.17,2.17,0,0,1,1.6-.21A7.85,7.85,0,0,0,16,19.58a8,8,0,0,1,1.41.28c.47,0,.87-.14,1.16-.12a15.76,15.76,0,0,1,1.94.77c.47.18,1,1.07,2,1.07a4.18,4.18,0,0,0,1.92-.64c.34-.15.77,0,1.76-.25a2.71,2.71,0,0,0,1.68-1c.54-.68,1.29.26,2.6.27,1.46,0,2.27.61,3.41.88a6.7,6.7,0,0,0,3.3-.24,2.55,2.55,0,0,1,2,.43M16.92,35.47a44.26,44.26,0,0,1-12.06-2,1.86,1.86,0,0,1-1.11-1.1,7.62,7.62,0,0,1-.36-1.51,3.31,3.31,0,0,0,2.11.71c1.13-.08,1.85-.43,2.51-.22s1.57.94,2.62.69a5.56,5.56,0,0,0,2.25-1,.33.33,0,0,1,.37,0,8.14,8.14,0,0,1,2.4,2.48c.65,1,1,1.65,1.27,2M39,30.91a11.82,11.82,0,0,1-.32,1.32,1.8,1.8,0,0,1-1,1.14c-1.78.7-6.74,2.23-16.11,2.23-1,0-1.93,0-2.82-.05a2.3,2.3,0,0,0,.45-.54c.66-1,1.87-3.4,2.83-3.64a7.16,7.16,0,0,1,3.65.38,4.93,4.93,0,0,0,2.66.79c1.47-.18,1.62-1.69,2.64-1.72a2.65,2.65,0,0,1,1.45.39,3.51,3.51,0,0,0,2.79,0c1.11-.55,1-.73,1.64-.7a11.26,11.26,0,0,0,2.19.41"/></svg>