<svg id="Layer_1" data-name="Layer 1" xmlns="http://www.w3.org/2000/svg" viewBox="0 0 27.46 38.98"><defs><style>.cls-1{fill:#fff;}.cls-2{fill:#4a2b1f;}.cls-3{fill:#e5b642;}</style></defs><title>cafe</title><path class="cls-1" d="M6.66,0h0A1.73,1.73,0,0,0,5.22.78h0A2.57,2.57,0,0,0,2.77,2.84L2.33,5H2.27C1.7,5,.65,5.25.2,7A7.64,7.64,0,0,0,0,8.26,1.38,1.38,0,0,0,1,9.64l.31.08c.64,5.21,3.1,25.09,3.19,25.75.16,1.16,1.31,2.07,3.42,2.72a20.17,20.17,0,0,0,5.84.79,20.8,20.8,0,0,0,6-.93c2.22-.71,3.37-1.62,3.52-2.78.13-.92,2-18.65,2.72-25.63l.36-.06a1.36,1.36,0,0,0,1.12-1.26,4.07,4.07,0,0,0-.79-2.84,1.8,1.8,0,0,0-1.28-.58,6.3,6.3,0,0,0-.68-1.33,2,2,0,0,0-1.48-.87L8.7,1.19,7.82.43A1.79,1.79,0,0,0,6.66,0"/><path class="cls-2" d="M1.36,8.35s.12-2,.92-2H3.44L4.1,3.12a1.24,1.24,0,0,1,1.32-1l.51,0,.44-.67a.37.37,0,0,1,.55-.08l1.2,1L23.07,4a.73.73,0,0,1,.51.31,3.85,3.85,0,0,1,.69,1.92h1.05c.53,0,.83,1,.77,2a81,81,0,0,1-12.42.85c-9.61,0-12.31-.76-12.31-.76"/><path class="cls-3" d="M2.62,9.49s3.1,25.11,3.19,25.8c.15,1.07,3.8,2.35,7.91,2.33s8-1.51,8.16-2.53S24.6,9.42,24.6,9.42a65.83,65.83,0,0,1-11.18.69,74.1,74.1,0,0,1-10.8-.62"/><path class="cls-1" d="M15.63,29.15c.64-.06,1.16,2.58,1.18,5.92l.93-.15c0-3.59-.95-6.32-2.11-6.23-.65.06-1.24.95-1.62,2.31-.38-1.36-1-2.25-1.63-2.31-1.16-.09-2.07,2.66-2.05,6.25.3.06.61.09.92.15,0-3.34.49-6,1.15-5.92s1.18,2.54,1.18,5.63h.92c0-3.09.48-5.6,1.13-5.65"/></svg>