<svg id="Layer_1" data-name="Layer 1" xmlns="http://www.w3.org/2000/svg" viewBox="0 0 25.34 50.54"><defs><style>.cls-1{fill:#fff;}.cls-2{fill:#ceccc7;}.cls-3{fill:#38302e;}.cls-4{fill:#689dc6;}.cls-5{fill:#e5b642;}.cls-6{fill:#c0bdb8;}</style></defs><title>deserts</title><path class="cls-1" d="M19.2,0a2.5,2.5,0,0,0-.87.19,1.79,1.79,0,0,0-.52.38l-.95,1.15H16.8l-2,.11A1.44,1.44,0,0,0,13.53,2.9s-.91,3.73-1.69,7a51.76,51.76,0,0,0-6.66.55,3,3,0,0,0-2.32,2.45L1.52,19.16a2.16,2.16,0,0,0-1,1.51,4.32,4.32,0,0,0-.06.81v.14l0,.08a2,2,0,0,0-.15,2c.19.35.56.79,1.75,1.22L5.1,47a2.82,2.82,0,0,0,1.64,2.23,14.9,14.9,0,0,0,6.71,1.34,16.54,16.54,0,0,0,7-1.75A2.79,2.79,0,0,0,22,46.41l1.86-22a2.15,2.15,0,0,0,1.38-1.3A1.77,1.77,0,0,0,25,21.6a.08.08,0,0,1,0,0c0-.07,0-.21,0-.31A2.58,2.58,0,0,0,24.17,19a3.52,3.52,0,0,0-.43-.31l-1.55-6.54A2.67,2.67,0,0,0,20,10.05l-.9-.09,1.74-4.88A1.42,1.42,0,0,0,20.82,4,3.42,3.42,0,0,0,21,1.06,1.9,1.9,0,0,0,19.2,0"/><path class="cls-2" d="M23.63,21.78c-.08-.56.13-1.26-.33-1.64a2.42,2.42,0,0,0-.76-.46l-1.7-7.17a1.27,1.27,0,0,0-1-1.06,46.48,46.48,0,0,0-7.18-.19,52,52,0,0,0-7.27.56,1.64,1.64,0,0,0-1.18,1.36l-1.48,7s-.81.19-.9.72a7.13,7.13,0,0,1-.11,1.2c-.14.38-.47.63-.29,1s3,1.73,11.49,1.52,10.9-1.54,11-1.86-.23-.38-.31-.93M12.34,22c-6.13.15-9-.85-9-.85,0-2.2.61-3.95,2.27-4.48a8.07,8.07,0,0,1,6.05.22l-.2.88a5.5,5.5,0,0,0-1.73-.27c-1.36.1-1.25,1.35,1.5,1.27l1.49-6.55,4.32.06-1.7,5.45a28.39,28.39,0,0,1,2.91-1.12,2.91,2.91,0,0,1,3.35,1.87,19.26,19.26,0,0,1,.43,2s-3,1.39-9.72,1.56"/><path class="cls-3" d="M6.8,17.35A1.54,1.54,0,0,1,7.15,17c.16-.06.25,0,.32-.14a.7.7,0,0,1,.4-.18,1.91,1.91,0,0,0,.41,0,1.42,1.42,0,0,1,.41.08s-.08.43-.09.56a.47.47,0,0,0,.1.27s-.08.07-.33-.08-.62-.29-.7-.1a.54.54,0,0,1-.53.27,5.55,5.55,0,0,0-.61,0Zm3-.51c0,.08-.16.09-.16.17s.16.09.18.17,0,0,0,.05h.05a.31.31,0,0,0,.2-.15.11.11,0,0,0,0-.08s0,0,0,0,0-.13,0-.19a.08.08,0,0,0-.1,0s-.06.05-.1.05Zm-4.72,2c-.09-.05-.11-.1-.22,0s-.17.21-.12.26-.16,0-.16.12,0,.17,0,.25-.07.09-.07.13.07.1.12.15a.37.37,0,0,1,.17.32c0,.15-.08.33,0,.43a.36.36,0,0,0,.27,0,.69.69,0,0,1,.57.16c.09.08.16.19.27.23s.42-.25.62-.18a.37.37,0,0,1-.19-.25.37.37,0,0,0,0-.18c0-.11-.2-.15-.24-.27a1.62,1.62,0,0,1,0-.19c0-.1-.2-.1-.27-.19s0-.1,0-.15a.22.22,0,0,0-.25-.13c0-.17-.28-.42-.42-.5m2.31.34c-.06-.06-.15-.1-.21-.06a.2.2,0,0,0,0,.15.25.25,0,0,0,0,.09l.09.06a.58.58,0,0,1,.24.5.2.2,0,0,1,.19.06,1.83,1.83,0,0,0,.16.13.14.14,0,0,0,.19,0c.06-.08,0-.2,0-.28s.11-.06.14-.1a.16.16,0,0,0-.08-.27H8.06a.32.32,0,0,1,0-.09.21.21,0,0,0-.33-.1c-.12.09-.22,0-.32-.06m11.94-1.47c-.09.07-.05.31-.25.37s-.26,0-.29.17-.13.14-.22.24-.1.23-.32.36a.91.91,0,0,0-.45.62c-.08.34-.66.71-.66.71s.16.09.77,0,1.32-1,1.63-1.17a1.38,1.38,0,0,1,.8-.17,3.19,3.19,0,0,1-.33-.6c-.08-.23-.21-.56-.45-.59a.4.4,0,0,0-.23.09m-5,1.06a1.73,1.73,0,0,0-1,.67,1.78,1.78,0,0,0,.59.26,6.54,6.54,0,0,0,1,.28c.15,0,.42-.34.56-.32a2.17,2.17,0,0,0-.29-.46c-.17-.16-.09,0-.27-.12s-.11-.37-.3-.26-.22,0-.34-.05m-2.61,1.13c-.12,0-.78.23-.66.36s0,0,.08,0a3,3,0,0,1,.41.08.39.39,0,0,1,.29.28.16.16,0,0,0,0,.09.2.2,0,0,0,.06.07.32.32,0,0,0,.19,0,2.47,2.47,0,0,0,0-.39.14.14,0,0,0,.18-.14c0-.16-.39-.42-.55-.41m4,.8c-.15-.08-.18-.13-.37,0s-.43.34-.38.52.48-.11.63-.15a3.83,3.83,0,0,1,.94.12,1,1,0,0,0-.23-.35.1.1,0,0,0,0-.05.14.14,0,0,0-.09,0,.46.46,0,0,1-.46-.06m-7.28,1s-.07.07-.09.1a0,0,0,0,0,0,0c.46,0,1,.06,1.51.07a.29.29,0,0,0,0-.16c.06,0,.15,0,.13-.11l0-.05c-.13-.13,0-.38-.08-.51l-.14-.08-.38-.14a1.25,1.25,0,0,0-.25-.09.3.3,0,0,0-.19,0s-.08,0-.11,0l0,0c-.06,0-.26.1-.3.16s0,.2-.12.29,0,0,0,0,0,0-.09-.05,0,.19.1.27a.27.27,0,0,1,.1.28"/><path class="cls-2" d="M19.52,3.55c.08-.2.54-1.33.27-1.84s-.89-.24-.89-.24l-1,1.2a.6.6,0,0,1,.47.36c.09.32-.29.76-.29.76l-1.19-.67-2,.1-1.7,7.07a41.12,41.12,0,0,1,4.36,0l2-5.69-.43-.1a9.08,9.08,0,0,1,.35-.94"/><path class="cls-4" d="M3.4,25s2.84.7,9.57.54,9.53-1,9.53-1L21.35,38.06c-1.19-3.54-4.13-11-7.8-10.94-2.39.05-5.24,2.76-6.29,8.05-.65-3.3-2.14-7.82-3.62-8.47ZM18.15,48.24c-.46-7.3-1.57-19.2-4.47-19.14-3.24.08-3.06,11.82-2.34,19.93a15.33,15.33,0,0,0,2.09.1,16.2,16.2,0,0,0,4.72-.89"/><path class="cls-5" d="M13.55,27.13c-2.4.05-5.24,2.76-6.27,8.05-.66-3.3-2.15-7.82-3.62-8.47L6.51,46.77a1.51,1.51,0,0,0,.86,1.16,12.65,12.65,0,0,0,4,1.11c-.73-8.11-.91-19.84,2.33-19.93,2.91-.06,4,11.84,4.47,19.14a13.25,13.25,0,0,0,1.67-.71,1.52,1.52,0,0,0,.83-1.24l.7-8.24c-1.19-3.54-4.13-11-7.8-10.93"/><path class="cls-6" d="M12.49,18.64a14.11,14.11,0,0,0,2.9-.93l1.68-5.45-4.32-.06-1.49,6.55c.36,0,.77-.06,1.23-.11"/></svg>