<svg id="Layer_1" data-name="Layer 1" xmlns="http://www.w3.org/2000/svg" viewBox="0 0 22.71 53.08"><defs><style>.cls-1{fill:#fff;}.cls-2{fill:#d1cfce;}.cls-3{fill:#e5b742;}.cls-4{fill:#ca4640;}.cls-5{fill:#e7e4e3;}</style></defs><title>drinks</title><path class="cls-1" d="M14.1,0h-.28a1,1,0,0,0-.85.7l-3,9.74c-3.9,0-6.6-.15-7.62-.21H2.22A1.68,1.68,0,0,0,.64,11.4L.08,13a1.31,1.31,0,0,0,.73,1.66L3.48,49.8a1.79,1.79,0,0,0,.71,1.31,8.57,8.57,0,0,0,2.37,1.22,14.92,14.92,0,0,0,4.77.75h0a15.26,15.26,0,0,0,4.78-.75,8.6,8.6,0,0,0,2.37-1.22,1.86,1.86,0,0,0,.7-1.31l2.69-35.25a1.66,1.66,0,0,0,.7-2.06L22.1,11.3a1.79,1.79,0,0,0-1.66-1.15h-.1c-1.05.06-3.58.19-6.62.25l2.71-8.65A1,1,0,0,0,16.06.64a3.62,3.62,0,0,0-.7-.39l-.1,0L14.81.07,14.7,0c-.21,0-.4,0-.6,0"/><path class="cls-2" d="M1.58,11.74,1,13.37a.3.3,0,0,0,.24.42,88.38,88.38,0,0,0,9.5.45c4.63,0,8.75-.33,10.41-.5a.63.63,0,0,0,.46-.87l-.48-1.19a.82.82,0,0,0-.78-.52c-1.41.08-5.41.3-9.71.3s-7.29-.15-8.41-.21a.68.68,0,0,0-.67.49"/><path class="cls-3" d="M13.93,1l-3,9.42a4.14,4.14,0,0,0,.57,0L14.5,1a2.35,2.35,0,0,0-.57,0"/><path class="cls-4" d="M12.63,10.47l2.82-9a2.9,2.9,0,0,0-.5-.28L12,10.49l.59,0"/><path class="cls-5" d="M2.5,23.8s1.91-3.59,4.75-4.44C7.16,17.89,7,15.49,7,15.15c-2.51-.09-4.24-.22-5.2-.32L3.24,33.69,4.47,49.74a.8.8,0,0,0,.31.58c.71.54,2.75,1.78,6.71,1.78a15.44,15.44,0,0,0,2.42-.18c0-.23,0-.52,0-.72-3.26.34-4.95-.53-5-1.6S8,32.6,7.41,22.31c-2.13,2.17-3.93,10.16-4,12.89Z"/><path class="cls-3" d="M8.48,21.76c2.56,0,4.75,9.74,5.09,16.72.36,7.38.37,12.68.37,13.44a8.54,8.54,0,0,0,4-1.76.6.6,0,0,0,.2-.4L20.39,20C19,21.2,16.65,29.9,16.65,29.9c-2-7.12-4.74-10.7-8.22-10.7s-5.92,4.6-5.92,4.6l.88,11.4C3.51,32,5.92,21.76,8.48,21.76"/></svg>