<svg id="Layer_1" data-name="Layer 1" xmlns="http://www.w3.org/2000/svg" viewBox="0 0 32.52 40.14"><defs><style>.cls-1{fill:#fff;}.cls-2{fill:#ca4844;}.cls-3{fill:#e5b642;}</style></defs><title>happymeal</title><path class="cls-1" d="M22.22,0c-2.07,0-4.22,1.55-6,4.22C14.47,1.56,12.3,0,10.23,0A6.23,6.23,0,0,0,5.82,2.27,18.4,18.4,0,0,0,2.16,8.71l0,.1L0,16.93a.78.78,0,0,0,0,.37L2,39.13a1.1,1.1,0,0,0,1.1,1l26.44,0a1.12,1.12,0,0,0,1.1-1l1.89-21.84a1.25,1.25,0,0,0,0-.38l-2.13-8.1a.36.36,0,0,1,0-.1,18.43,18.43,0,0,0-3.69-6.43A6.26,6.26,0,0,0,22.22,0"/><polygon class="cls-2" points="29.53 38.98 31.41 17.14 29.28 9.04 3.2 9.09 1.11 17.2 3.08 39.03 29.53 38.98"/><path class="cls-3" d="M22.22,1.11c-2.21,0-4.48,2.36-6,5.3-1.52-2.93-3.79-5.29-6-5.29s-5,2.41-7,8H7.56C8,5.85,8.79,3.88,10,3.88s2.15,2,2.66,5.19l7.1,0c.5-3.21,1.34-5.2,2.64-5.2s2,2,2.5,5.19h4.34c-2-5.54-4.8-7.92-7.06-7.92"/><path class="cls-3" d="M16.29,31.25c-4.58,0-8.48-3.29-9.9-7.9l-1.16.54-.56-1.23L7.86,21.2l.57,1.22-1,.45c1,3.45,4.56,6,8.83,6s7.85-2.58,8.81-6l-1-.45.56-1.23,3.2,1.46-.56,1.22-1.17-.53c-1.38,4.61-5.27,7.93-9.85,7.94"/></svg>