<?xml version="1.0" encoding="utf-8"?>
<!-- Generator: Adobe Illustrator 24.0.0, SVG Export Plug-In . SVG Version: 6.00 Build 0)  -->
<svg version="1.1" id="Layer_1" xmlns="http://www.w3.org/2000/svg" xmlns:xlink="http://www.w3.org/1999/xlink" x="0px" y="0px"
	 viewBox="0 0 207.1 112.1" style="enable-background:new 0 0 207.1 112.1;" xml:space="preserve">
<style type="text/css">
	.st0{fill:#A17C5B;}
	.st1{fill:#CC5946;}
	.st2{fill:#CBBAA3;}
	.st3{fill:#949C6E;}
	.st4{fill:#DEDDDD;}
	.st5{clip-path:url(#SVGID_2_);fill:url(#SVGID_3_);}
	.st6{clip-path:url(#SVGID_5_);fill:url(#SVGID_6_);}
	.st7{clip-path:url(#SVGID_8_);fill:url(#SVGID_9_);}
	.st8{clip-path:url(#SVGID_11_);fill:url(#SVGID_12_);}
	.st9{clip-path:url(#SVGID_14_);fill:url(#SVGID_15_);}
	.st10{clip-path:url(#SVGID_17_);fill:url(#SVGID_18_);}
	.st11{clip-path:url(#SVGID_20_);fill:url(#SVGID_21_);}
	.st12{clip-path:url(#SVGID_23_);fill:url(#SVGID_24_);}
	.st13{clip-path:url(#SVGID_26_);fill:url(#SVGID_27_);}
	.st14{clip-path:url(#SVGID_29_);fill:url(#SVGID_30_);}
	.st15{clip-path:url(#SVGID_32_);fill:url(#SVGID_33_);}
	.st16{clip-path:url(#SVGID_35_);fill:url(#SVGID_36_);}
	.st17{fill-rule:evenodd;clip-rule:evenodd;fill:#E5B642;}
	.st18{clip-path:url(#SVGID_38_);fill:#E5B642;}
	.st19{fill:#DEA15B;}
	.st20{fill:#C3823D;}
	.st21{fill:#764F29;}
	.st22{fill:#2B2C2B;}
	.st23{fill:#333037;}
	.st24{fill:#4F4C55;}
	.st25{fill:#965333;}
	.st26{fill:#5F8A7B;}
	.st27{fill:#699986;}
	.st28{fill:#4F5F7A;}
	.st29{fill:#8DB740;}
	.st30{fill:#CACAC7;}
	.st31{fill:#617694;}
	.st32{fill:#BD6A3D;}
	.st33{fill:#74AAAB;}
	.st34{fill:#5C8787;}
	.st35{fill:#D78E45;}
	.st36{fill:#C26078;}
	.st37{fill:#517765;}
	.st38{fill:#8A70A4;}
	.st39{fill:#618D7B;}
	.st40{fill:#8B4F2F;}
	.st41{fill:#6F5881;}
	.st42{fill:#CF6D87;}
	.st43{fill:#A6C6B5;}
	.st44{fill:#585047;}
	.st45{fill:#423932;}
	.st46{fill:#855E4C;}
	.st47{fill:#AE805B;}
	.st48{fill:#7C584A;}
	.st49{fill:#F4F9FA;}
	.st50{fill:#1F314E;}
	.st51{fill:#74ADCB;}
	.st52{fill:#152131;}
	.st53{fill:#966851;}
	.st54{fill:#6BA1C7;}
	.st55{fill:#6A5045;}
	.st56{fill:#BACDCC;}
	.st57{fill:#FFFFFF;}
	.st58{fill:#D8EBF3;}
	.st59{fill:#E3AF41;}
	.st60{fill:#80B4CF;}
</style>
<g>
	<polygon class="st0" points="22.6,23.2 0,6.2 0,0 207.1,2.2 207.1,8.2 186.1,24.3 186.1,100.5 22.6,100.5 	"/>
	<g>
		<path class="st1" d="M0,6.2V0c0,0,174.3,0.2,207.1,2.2v6C197.6,7.8,18.7,4.7,0,6.2"/>
		<polygon class="st2" points="22.6,12.3 71.4,12.3 71.4,104.8 22.6,105 		"/>
		<polygon class="st2" points="103.5,12.3 186.3,12.3 186.3,104.8 103.5,105 		"/>
		<rect x="22.6" y="12.3" class="st2" width="7.1" height="88.1"/>
		<polygon class="st3" points="71.4,56.4 71.4,100.5 103.9,100.5 103.6,56.4 		"/>
	</g>
	<rect x="74.3" y="68.7" class="st4" width="26.4" height="32.9"/>
	<g>
		<g>
			<defs>
				<rect id="SVGID_1_" x="76.1" y="71.2" width="10.5" height="30.4"/>
			</defs>
			<clipPath id="SVGID_2_">
				<use xlink:href="#SVGID_1_"  style="overflow:visible;"/>
			</clipPath>
			
				<linearGradient id="SVGID_3_" gradientUnits="userSpaceOnUse" x1="383.0563" y1="-67.1844" x2="384.7107" y2="-67.1844" gradientTransform="matrix(6.3701 0 0 -6.3701 -2363.9958 -341.5909)">
				<stop  offset="0" style="stop-color:#FFFFFF"/>
				<stop  offset="1" style="stop-color:#D8E4ED"/>
			</linearGradient>
			<rect x="76.1" y="71.2" class="st5" width="10.5" height="30.4"/>
		</g>
	</g>
	<g>
		<g>
			<defs>
				<rect id="SVGID_4_" x="88.4" y="71.2" width="10.5" height="30.4"/>
			</defs>
			<clipPath id="SVGID_5_">
				<use xlink:href="#SVGID_4_"  style="overflow:visible;"/>
			</clipPath>
			
				<linearGradient id="SVGID_6_" gradientUnits="userSpaceOnUse" x1="383.8166" y1="-67.1854" x2="385.471" y2="-67.1854" gradientTransform="matrix(6.3701 0 0 -6.3701 -2356.5549 -341.5978)">
				<stop  offset="0" style="stop-color:#FFFFFF"/>
				<stop  offset="1" style="stop-color:#D8E4ED"/>
			</linearGradient>
			<rect x="88.4" y="71.2" class="st6" width="10.5" height="30.4"/>
		</g>
	</g>
	<g>
		<g>
			<defs>
				<rect id="SVGID_7_" x="31.2" y="64.3" width="17.4" height="36.2"/>
			</defs>
			<clipPath id="SVGID_8_">
				<use xlink:href="#SVGID_7_"  style="overflow:visible;"/>
			</clipPath>
			
				<linearGradient id="SVGID_9_" gradientUnits="userSpaceOnUse" x1="413.272" y1="-68.0994" x2="414.9268" y2="-68.0994" gradientTransform="matrix(10.5258 0 0 -10.5258 -4318.9463 -634.4243)">
				<stop  offset="0" style="stop-color:#FFFFFF"/>
				<stop  offset="1" style="stop-color:#D8E4ED"/>
			</linearGradient>
			<rect x="31.2" y="64.3" class="st7" width="17.4" height="36.2"/>
		</g>
	</g>
	<g>
		<g>
			<defs>
				<rect id="SVGID_10_" x="49.9" y="64.3" width="17.4" height="36.2"/>
			</defs>
			<clipPath id="SVGID_11_">
				<use xlink:href="#SVGID_10_"  style="overflow:visible;"/>
			</clipPath>
			
				<linearGradient id="SVGID_12_" gradientUnits="userSpaceOnUse" x1="413.9691" y1="-68.0996" x2="415.6247" y2="-68.0996" gradientTransform="matrix(10.5249 0 0 -10.5249 -4307.2285 -634.3656)">
				<stop  offset="0" style="stop-color:#FFFFFF"/>
				<stop  offset="1" style="stop-color:#D8E4ED"/>
			</linearGradient>
			<rect x="49.9" y="64.3" class="st8" width="17.4" height="36.2"/>
		</g>
	</g>
	<g>
		<g>
			<defs>
				<rect id="SVGID_13_" x="31.2" y="18.2" width="17.4" height="35.1"/>
			</defs>
			<clipPath id="SVGID_14_">
				<use xlink:href="#SVGID_13_"  style="overflow:visible;"/>
			</clipPath>
			
				<linearGradient id="SVGID_15_" gradientUnits="userSpaceOnUse" x1="413.272" y1="-66.3441" x2="414.9268" y2="-66.3441" gradientTransform="matrix(10.5258 0 0 -10.5258 -4318.9463 -662.5894)">
				<stop  offset="0" style="stop-color:#FFFFFF"/>
				<stop  offset="1" style="stop-color:#D8E4ED"/>
			</linearGradient>
			<rect x="31.2" y="18.2" class="st9" width="17.4" height="35.1"/>
		</g>
	</g>
	<g>
		<g>
			<defs>
				<rect id="SVGID_16_" x="49.9" y="18.2" width="17.4" height="35.1"/>
			</defs>
			<clipPath id="SVGID_17_">
				<use xlink:href="#SVGID_16_"  style="overflow:visible;"/>
			</clipPath>
			
				<linearGradient id="SVGID_18_" gradientUnits="userSpaceOnUse" x1="413.9691" y1="-66.3442" x2="415.6247" y2="-66.3442" gradientTransform="matrix(10.5249 0 0 -10.5249 -4307.2285 -662.5306)">
				<stop  offset="0" style="stop-color:#FFFFFF"/>
				<stop  offset="1" style="stop-color:#D8E4ED"/>
			</linearGradient>
			<rect x="49.9" y="18.2" class="st10" width="17.4" height="35.1"/>
		</g>
	</g>
	<g>
		<g>
			<defs>
				<rect id="SVGID_19_" x="107.1" y="64.3" width="19.5" height="36.2"/>
			</defs>
			<clipPath id="SVGID_20_">
				<use xlink:href="#SVGID_19_"  style="overflow:visible;"/>
			</clipPath>
			
				<linearGradient id="SVGID_21_" gradientUnits="userSpaceOnUse" x1="421.393" y1="-68.2915" x2="423.0455" y2="-68.2915" gradientTransform="matrix(11.8249 0 0 -11.8249 -4875.668 -725.1634)">
				<stop  offset="0" style="stop-color:#FFFFFF"/>
				<stop  offset="1" style="stop-color:#D8E4ED"/>
			</linearGradient>
			<rect x="107.1" y="64.3" class="st11" width="19.5" height="36.2"/>
		</g>
	</g>
	<g>
		<g>
			<defs>
				<rect id="SVGID_22_" x="127.8" y="64.3" width="19.6" height="36.2"/>
			</defs>
			<clipPath id="SVGID_23_">
				<use xlink:href="#SVGID_22_"  style="overflow:visible;"/>
			</clipPath>
			
				<linearGradient id="SVGID_24_" gradientUnits="userSpaceOnUse" x1="422.0771" y1="-68.2927" x2="423.7322" y2="-68.2927" gradientTransform="matrix(11.8249 0 0 -11.8249 -4863.2109 -725.178)">
				<stop  offset="0" style="stop-color:#FFFFFF"/>
				<stop  offset="1" style="stop-color:#D8E4ED"/>
			</linearGradient>
			<rect x="127.8" y="64.3" class="st12" width="19.6" height="36.2"/>
		</g>
	</g>
	<g>
		<g>
			<defs>
				<rect id="SVGID_25_" x="148.4" y="64.3" width="19.5" height="36.2"/>
			</defs>
			<clipPath id="SVGID_26_">
				<use xlink:href="#SVGID_25_"  style="overflow:visible;"/>
			</clipPath>
			
				<linearGradient id="SVGID_27_" gradientUnits="userSpaceOnUse" x1="422.7749" y1="-68.2915" x2="424.4293" y2="-68.2915" gradientTransform="matrix(11.8249 0 0 -11.8249 -4850.7188 -725.1634)">
				<stop  offset="0" style="stop-color:#FFFFFF"/>
				<stop  offset="1" style="stop-color:#D8E4ED"/>
			</linearGradient>
			<rect x="148.4" y="64.3" class="st13" width="19.5" height="36.2"/>
		</g>
	</g>
	<g>
		<g>
			<defs>
				<rect id="SVGID_28_" x="107.1" y="18.2" width="19.5" height="35.1"/>
			</defs>
			<clipPath id="SVGID_29_">
				<use xlink:href="#SVGID_28_"  style="overflow:visible;"/>
			</clipPath>
			
				<linearGradient id="SVGID_30_" gradientUnits="userSpaceOnUse" x1="421.393" y1="-66.729" x2="423.0455" y2="-66.729" gradientTransform="matrix(11.8249 0 0 -11.8249 -4875.668 -753.3284)">
				<stop  offset="0" style="stop-color:#FFFFFF"/>
				<stop  offset="1" style="stop-color:#D8E4ED"/>
			</linearGradient>
			<rect x="107.1" y="18.2" class="st14" width="19.5" height="35.1"/>
		</g>
	</g>
	<g>
		<g>
			<defs>
				<rect id="SVGID_31_" x="127.8" y="18.2" width="19.6" height="35.1"/>
			</defs>
			<clipPath id="SVGID_32_">
				<use xlink:href="#SVGID_31_"  style="overflow:visible;"/>
			</clipPath>
			
				<linearGradient id="SVGID_33_" gradientUnits="userSpaceOnUse" x1="422.0771" y1="-66.7302" x2="423.7322" y2="-66.7302" gradientTransform="matrix(11.8249 0 0 -11.8249 -4863.2109 -753.3431)">
				<stop  offset="0" style="stop-color:#FFFFFF"/>
				<stop  offset="1" style="stop-color:#D8E4ED"/>
			</linearGradient>
			<rect x="127.8" y="18.2" class="st15" width="19.6" height="35.1"/>
		</g>
	</g>
	<g>
		<g>
			<defs>
				<rect id="SVGID_34_" x="148.4" y="18.2" width="19.5" height="35.1"/>
			</defs>
			<clipPath id="SVGID_35_">
				<use xlink:href="#SVGID_34_"  style="overflow:visible;"/>
			</clipPath>
			
				<linearGradient id="SVGID_36_" gradientUnits="userSpaceOnUse" x1="422.7749" y1="-66.729" x2="424.4293" y2="-66.729" gradientTransform="matrix(11.8249 0 0 -11.8249 -4850.7188 -753.3284)">
				<stop  offset="0" style="stop-color:#FFFFFF"/>
				<stop  offset="1" style="stop-color:#D8E4ED"/>
			</linearGradient>
			<rect x="148.4" y="18.2" class="st16" width="19.5" height="35.1"/>
		</g>
	</g>
	<g>
		<path class="st17" d="M91.3,27.2c1.5,0,2.7,6.2,2.7,13.9h2.2c0-8.2-2.2-14.9-4.8-14.9c-1.5,0-2.9,2-3.7,5.1
			c-0.9-3.1-2.2-5.1-3.7-5.1c-2.6,0-4.8,6.7-4.8,14.9h2.2c0-7.6,1.2-13.9,2.7-13.9s2.7,5.7,2.7,12.8h2.2
			C88.6,32.9,89.8,27.2,91.3,27.2"/>
	</g>
	<g>
		<g>
			<defs>
				<path id="SVGID_37_" d="M87.5,31.3c-0.9-3.1-2.2-5.1-3.7-5.1c-2.6,0-4.8,6.7-4.8,14.9h2.2c0-7.6,1.2-13.9,2.7-13.9
					s2.7,5.7,2.7,12.8h2.2c0-7.1,1.2-12.8,2.7-12.8s2.7,6.2,2.7,13.9h2.2c0-8.2-2.2-14.9-4.8-14.9C89.8,26.1,88.4,28.1,87.5,31.3"/>
			</defs>
			<clipPath id="SVGID_38_">
				<use xlink:href="#SVGID_37_"  style="overflow:visible;"/>
			</clipPath>
			<rect x="77.3" y="24.4" class="st18" width="20.4" height="18.3"/>
		</g>
	</g>
	<rect x="22.6" y="56.3" class="st0" width="163.7" height="2.3"/>
	<rect x="169.4" y="12.3" class="st3" width="0.8" height="88.1"/>
	<rect x="171.2" y="12.3" class="st3" width="0.8" height="88.1"/>
	<rect x="173.1" y="12.3" class="st3" width="0.8" height="88.1"/>
	<rect x="174.9" y="12.3" class="st3" width="0.8" height="88.1"/>
	<rect x="176.6" y="12.3" class="st3" width="0.8" height="88.1"/>
	<rect x="178.4" y="12.3" class="st3" width="0.8" height="88.1"/>
	<rect x="180.2" y="12.3" class="st3" width="0.8" height="88.1"/>
	<rect x="182" y="12.3" class="st3" width="0.8" height="88.1"/>
	<rect x="183.7" y="12.3" class="st3" width="0.8" height="88.1"/>
	<rect x="185.4" y="12.3" class="st3" width="0.8" height="88.1"/>
	<rect x="6.9" y="54.8" class="st1" width="194" height="1.4"/>
	<g>
		<path class="st19" d="M119.6,85.7c0-0.1,4.3-0.3,4.4-0.3c0.2-0.4,0.7-1.1,1-1.2c0.2-0.1,1.3-0.2,1.3-0.2c0.2,0.1,0,1.5-0.1,1.6
			c0,0-0.5,0.8-1.6,0.8c-0.1,0-4.7,2.1-4.8,2.2C119.9,88.5,119.3,86.1,119.6,85.7"/>
		<path class="st20" d="M125.4,82.5c1,0,1.6,0.2,1.1,0.3c0,0.2,0-0.1-0.3,3l0,0c0.2,0.2-0.1,0.4-0.7,0.4c-0.5,0-0.9-0.2-0.7-0.3
			c0-0.1-0.5-2.7-0.5-3C123.8,82.7,124.4,82.5,125.4,82.5"/>
		<path class="st21" d="M125.5,82.8c0.5,0,1-0.1,1-0.1c0-0.1-0.4-0.1-1-0.1C124.2,82.6,124.2,82.8,125.5,82.8"/>
		<path class="st19" d="M125.4,84c-0.2-0.2-0.4,0.1-0.7,0.4c-0.2,0.2-0.5,0.6-0.5,0.7c0,0,0.3,0.5,0.5,0.4c0.2-0.1,0.1-0.6,0.4-0.9
			C125.3,84.4,125.4,84.1,125.4,84"/>
		<path class="st19" d="M126.4,85.5c-0.1,0.1-0.1,0.2-0.2,0.2c-0.1-0.1-0.1-0.3,0.1-0.4c-0.1-0.1-0.1-0.3,0-0.4
			c-0.1-0.1-0.2-0.4,0.1-0.4c-0.2-0.2-0.1-0.4,0.1-0.5c0.1,0,0.1,0.1,0.2,0.1c0.1,0.3-0.1,0.3-0.1,0.4c0,0.1,0.1-0.1,0.1,0.2
			c0.1,0.2-0.1,0.2-0.1,0.3c0,0,0.1,0.1,0.1,0.1c0,0.1-0.1,0.2-0.1,0.2C126.3,85.3,126.4,85.4,126.4,85.5"/>
		<path class="st22" d="M113.6,111.4c-0.5-0.1-2.4-0.7-2.6-1.1c-0.1-0.1,0.2-0.8,0.5-1c0.1,0.1,0.9,0.8,1.3,0.4
			c0.3,0,0.1,0.3,0.1,0.4c0.1,0.3,0.2,0.7,0.7,1C114.1,111.3,113.8,111.4,113.6,111.4"/>
		<path class="st23" d="M117.6,91.1c0.1-0.1,3.5,0.7,3.3,2.2c-0.3,0.4-2.7,9.2-3.3,10.5c-0.5,1.3-4.2,6.5-4.3,6.6
			c-0.1,0.2-2.4-0.5-2.3-1.1c0.1-0.1,3.2-5.4,3.9-7.2C115.7,100.3,115,92.4,117.6,91.1"/>
		<path class="st22" d="M124.4,112.1c-0.8,0.1-2,0-2.1-0.1c-0.1-0.1-0.2-0.8,0.1-1.2c0.2,0.1,1.1,0.4,1.3-0.2
			c0.3-0.1,0.2,0.2,0.2,0.3c0.2,0.2,1,0.7,1.3,0.7C125.8,111.5,125.7,112,124.4,112.1"/>
		<path class="st24" d="M115.8,91.8c0.1-0.1,3.5-0.7,4.3,0.7c0.6,1.4,2.1,7.4,2.6,9.7c0.5,2.4,1.6,8.4,1.7,8.5
			c0.5,0.7-1.9,0.9-2.5,0.7c0-0.2-2-7.9-2.2-8.4C118.5,100.5,114.4,93.9,115.8,91.8"/>
		<path class="st23" d="M119.7,94.4c0.5,0.1,0.2,1.2,0.1,1.7c-0.1,0.5-0.4,0.6-1,0.3C117.9,95.9,119.3,94.3,119.7,94.4"/>
		<path class="st19" d="M122.6,76c0,0.3-0.6,0.5-0.6,0.5c-0.1,0.1,0.2,0.5,0.1,0.6c-0.1,0.1-0.4,0.2-1,0.1c0.2,0.2,1.1,0.1,1.1,0.4
			c-0.2,0.5,0.3,0.9-0.1,1.1c-0.2,0.1-0.6,0.1-1.3-0.1c0,0-0.4,1.6,0.2,2.5c0.1,0.2-4.1-1.1-3.7-1.4c0.4-0.3,0.7-1,0.7-1.2
			c-0.1-0.6-1.9-1.4-1.9-2.8c0-1.1,0.2-1.9,1.4-2.4c1.6-0.7,2.9-0.5,3.5,0.4c0.7,1,0.5,1.4,0.6,1.7C121.8,75.7,122.6,75.6,122.6,76"
			/>
		<path class="st25" d="M116,74.1c0-0.1,0.5-1.9,2.5-2.1c1.4-0.2,1.5,0.2,2.5,0.2c0.4,0,0.2-0.2,0.5-0.5c1,0.4,0.6,1.6,0,1.9
			c0.1,0.4-1.4,0.4-1.7,0.5c-0.2,0.2-0.1,2.3-0.1,2.4c0.1,0.1,0.6,0.2,1.1,0.2c0.2,0,1.1,0,1.3-0.1c0.1,0.1,0.2,0.2,0.2,0.2
			c-0.7,0.2-1.6,0.2-1.5,0.3c0.6,0.6,1.6,0.4,1.6,0.5c0,0.7,1,2,0.1,1.8c-1.1-0.2-2.2-0.5-2.7-1c-0.2-0.2-0.7-1.9-0.8-2.2
			c-0.1-0.3-0.3-1.1-0.8-0.3c-0.3,0.5,0.2,1.1,0.4,1.4c0.2,0.3-0.2,1.1-0.3,1.1c-0.4-0.8-1.2-1-1.7-1.7
			C116.3,76.5,115.6,75.3,116,74.1"/>
		<path class="st22" d="M118,75.7c0,0.1,2.5-0.3,2.5-0.2c0.1,0.3,0.4,0.5,0.7,0.5c0.4,0,0.8-0.4,0.8-0.8s-0.4-0.7-0.8-0.7
			c-0.3,0-0.7,0.1-0.8,0.4C120.3,75,118,75.6,118,75.7"/>
		<path class="st26" d="M114.5,94.5c0,0.3,1.1,1,2.7,0.2c0.8-0.4,2.1-1,3.2,0.1c0.8,0.8,1.4,0.4,1.4,0.2c-0.9-2.2,0.5-7.7,0.4-9.8
			c-0.1-2-1.3-5.1-1.5-5.1c-0.9,0.1-2.8-1-3-1c-0.2-0.1-1.4,2.3-2,4.2c-0.5,1.8,0,4.8-0.8,7.8C114.7,92.3,114.4,94.2,114.5,94.5"/>
		<path class="st19" d="M117.4,82.3c0,0,3,0.9,2.9,1.7c-0.2,0.8-1.8,4.7-1.8,4.9c0,0,1.4,5.6,1.3,5.9c-0.1,0.8-0.4,1.4-0.7,1.3
			c-0.3-0.1-2.9-6.6-2.9-7.6C116.1,87.4,116.8,83.7,117.4,82.3"/>
		<path class="st27" d="M119.5,81c1.2,1,1.4,3.8,0.5,5.4l-3.6-1.2C116.5,84.7,116.8,80,119.5,81"/>
		<path class="st19" d="M42.5,98.1c-0.4,0.1-1.9-1-2.2-0.7c-0.5,0.7-2.3,7-2.7,7.3c-0.4,0.2,1,0.5,1,0.3
			C38.7,105.1,43.3,98.1,42.5,98.1"/>
		<path class="st28" d="M47.3,89.3c0-0.8-1.8-3.1-3.5-1.3c-0.2,0.2-2,3.9-3.3,7.7c-0.3,1-0.7,2-0.7,2.5c-0.1,0.5,2.9,1.1,2.9,1.1
			c0.4-0.9,0.7-1.7,0.6-2.4C43.3,96.3,47.4,92,47.3,89.3"/>
		<path class="st29" d="M35.6,105.6c0.5,0.2,1.1,0.4,1.4,0.5c1,0.2,1.8,0.2,1.9,0.1c0.1-0.1,0.2-0.2,0.1-0.4
			c0.1-0.2,0.1-0.7-0.1-1.1c-0.2,0.1-1,0.3-1.2-0.3c-0.4-0.2-0.2,0.2-0.3,0.3c-0.3,0.2-1,0.4-1.3,0.3
			C35.5,104.9,35.4,105.5,35.6,105.6"/>
		<path class="st30" d="M35.6,105.6c0.1,0.1,0.6,0.4,0.9,0.4c1,0.2,2,0.4,2.5,0.4c0.1,0,0.1-0.2,0.1-0.4c-0.4,0.1-1.8,0-2.7-0.4
			c0-0.1,0-0.4,0-0.5c-0.1,0-0.1,0-0.2-0.1C35.5,104.9,35.3,105.4,35.6,105.6"/>
		<path class="st30" d="M36.6,105.2c0.1,0.2,0.1,0.3,0.3,0.2c0.1,0,0-0.2-0.1-0.3C36.8,105.1,36.8,105.1,36.6,105.2 M37.3,104.9
			c0.1,0.1,0.2,0.2,0.3,0.2c0-0.1-0.1-0.2-0.1-0.3C37.4,104.8,37.3,104.9,37.3,104.9 M37.2,105c0.1,0.1,0.1,0.2,0.1,0.2
			c-0.1,0.1-0.2,0-0.3-0.1C37,105.1,37.1,105,37.2,105"/>
		<path class="st19" d="M53.4,103.6c-0.4-0.1-3-6.6-4.5-6.6c-0.9,0-1.8,1.2-1.8,1.2s5.3,5.6,5,6.2L53.4,103.6z"/>
		<path class="st31" d="M48.9,96.2c-0.5-0.9-1-5.6-0.8-5.8c0.7-0.6,0.7-2.6,0.1-2.7c-1.3-0.2-4.8,0.4-5.1,0.6c0.5,2.6,2,8.3,2.5,9.1
			c0.1,0.2,1.2,1.7,1.6,1.9c0.4,0.2,2.8-1.9,2.8-1.9C49.7,97,49.1,96.3,48.9,96.2"/>
		<path class="st29" d="M51.3,106.1c0.5-0.2,1.1-0.4,1.4-0.6c0.8-0.5,1.5-1,1.5-1.2S54.1,104,54,104c-0.1-0.2-0.4-0.5-0.8-0.7
			c-0.1,0.2-0.5,1-1.1,0.6c-0.4,0.1-0.1,0.4-0.1,0.4c-0.1,0.4-0.4,1-0.8,1.1C50.7,105.7,51,106.2,51.3,106.1"/>
		<path class="st30" d="M51.3,106.2c0.1,0,0.7-0.2,1-0.3c0.8-0.5,1.8-1.1,2-1.4c0.1-0.1-0.1-0.2-0.1-0.4c-0.2,0.3-1.3,1.2-2.3,1.6
			c-0.1-0.1-0.2-0.3-0.3-0.4c-0.1,0.1-0.1,0.1-0.2,0.1C50.7,105.7,51,106.2,51.3,106.2"/>
		<path class="st30" d="M51.8,105.1c0.2,0.1,0.3,0.1,0.4,0c0-0.1-0.1-0.1-0.2-0.1C51.8,105,51.8,105.1,51.8,105.1 M52,104.5
			c0.2,0.1,0.4,0.1,0.4-0.1c0-0.1-0.2-0.1-0.3-0.1C52.1,104.4,52,104.5,52,104.5 M52,104.6c0.1,0,0.2,0.1,0.2,0.1
			c0,0.1-0.1,0.1-0.3,0.1C51.9,104.8,52,104.7,52,104.6"/>
		<path class="st19" d="M45.4,75.3c0-0.6,1.7-1.7,1.5-3c-0.2-1.1-0.5-1.9-1.8-2.2c-1.7-0.4-3.3,0.7-3.4,0.8
			c-0.5,1.1-0.2,1.5-0.4,1.9c-0.1,0.2-0.2,0.5-0.6,0.8c-0.4,0.3,0.4,0.5,0.4,0.5c0.2,0.2-0.1,0.4,0,0.5c0.3,0.2,1.1,0.1,1.1,0.1
			c-0.1,0.2-1.1,0.2-1,0.4c0,0.1,0.1,0.1,0.2,0.4c0.1,0.3-0.2,0.7,0,0.8c0.2,0.1,0.7-0.1,1.4-0.4c0,0,0.6,1.6-0.1,3.2
			c-0.1,0.1,4-1.1,3.8-1.3C46,77.3,45.5,76.2,45.4,75.3"/>
		<path class="st32" d="M47.1,73.1c-0.2,0.6-1.5,1.2-1.7,2.4c-0.1,0-0.8-0.8-0.7-1.1c0.1-0.4,0.7-0.7,0.4-1.1
			c-0.4-0.5-1-0.1-1.1,0.4c0,0.1-0.4-0.2-0.4-0.4s0.3-1.9-0.1-2.1c-0.3-0.1-1.6,0.5-2,0.1c-0.4,0.1-1.2-0.8-0.7-1.5
			c0.4-0.5,0.5-1,3-0.9c0.6,0-1.1,0.1-1.4,0.6c-0.1,0.2,0.2,0.1,0.5-0.1c1.5-0.3,2.1,0,2.3,0c0.2,0,1.7,0.2,2,2c0,0.1,0.1,0.3,0,0.4
			C47.3,72.1,47.3,72.6,47.1,73.1"/>
		<path class="st33" d="M48.3,76c0.4,1.6,0.5,3.4-0.3,3.5c-0.5,0-0.7-0.9-1.1-1.4c2,2,2.7,10.8,2,12c-0.3,0.4-2.3,1.2-3.6,1
			c-0.9-0.1-2.7-0.1-3.2-0.2c-0.4-0.2,0.5-1,0.3-3.9c-0.2-3.2-1-4.8-0.1-7.4c0.2-0.8,2-2.7,2.7-3.2C45.4,75.9,48.2,75.4,48.3,76"/>
		<path class="st34" d="M46.6,91l-1.1-2.5l-0.1-3.3c0,0-1.2-2.4-1.4-5.1c0-0.2,0-0.2,0.1-0.2c0.4,0,2.8,5.3,2.8,5.3L46.6,91z"/>
		<path class="st34" d="M47.9,78.8c0,0-1.2-1.4-2.6-1.4c-0.1,0-0.2,0-0.4,0.1c-1.1,0.2-1.8,1-1.8,1s1-1.5,2.2-1.5
			c0.1,0,0.3,0,0.4,0.1C47,77.5,47.9,78.8,47.9,78.8"/>
		<path class="st35" d="M50.7,87.3c-0.8,1-3,2.9-3.2,3.1c-0.2,0.2-0.8,0.2-1.3,0.6c-0.3,0.2-0.7,1-0.7,1s-0.1,0.1,0.1,0.1
			c0.2,0,0.4-0.4,0.7-0.5c0.1,0,0.4-0.1,0.4-0.1c0.1,0-0.4,0.4-0.4,0.5c0.1,0.1,0.6-0.2,1-0.5c0.3-0.2,0.4-0.4,0.6-0.4
			c0.3-0.2,2.5-1.4,3.3-2L50.7,87.3z"/>
		<path class="st36" d="M55.5,82c0.5-1.3-1.6-2.6-2.5-1.9c-0.9,0.7-0.9,5.3-1.9,6.4c-0.2,0.2-2,1.7-2.4,2.2c0,0,0.6,1.6,0.8,1.7
			c0.3,0.1,3.1-2,3.6-2.5C54.3,86.7,55,83.4,55.5,82"/>
		<path class="st19" d="M46.7,85.6c-0.2,1.1-0.4,4.7-0.6,4.8c0,0-0.5,0.4-0.6,0.6c0,0.1-0.4,0.5-0.3,0.7c0.1,0.3,0.3-0.2,0.3-0.2
			c0,0.3-0.2,0.9,0.1,1c0.2,0.1,1.2,0.2,1.4-0.2c0.1-0.1,0.1-1.2,0.2-1.6c0.1-0.3,1.8-3.6,1.6-4.5C48.5,85.2,46.7,85.6,46.7,85.6"/>
		<path class="st29" d="M44.2,78.6c-0.8,1.7,1.3,5.1,1.7,6.8c0,0.1-0.1,2.8-0.1,3c-0.1,0.4,2.6,0.5,2.8,0.2c0.1-0.1,0.7-3.5,0.4-4.4
			c-0.3-0.9-1.4-5.1-2-5.8C45.9,77,44.8,77.3,44.2,78.6"/>
		<path class="st19" d="M62,105.2c-0.2-0.1-0.7-0.8-0.9-1.3l-0.8,0.7c0.2,0.2,0.7,1,0.8,1.3C61.2,106,62.3,105.4,62,105.2"/>
		<path class="st37" d="M59.2,100c-0.7-1.3-1.4-2.1-1.8-2.3c-0.1,0-0.4-6.2-0.8-8.1c-0.1-0.7-3.8,0.1-3.9,0.5
			c-0.1,0.1,2.2,7,2.6,8.3c0.5,1.3,5.1,6.8,5.3,6.9c0.2,0,0.9-0.7,1.1-0.8C61.8,104.3,59.8,101.2,59.2,100"/>
		<path class="st38" d="M60.2,107.3c0.4-0.1,0.9-0.4,1.1-0.5c0.7-0.4,1.2-0.8,1.3-1c0-0.1-0.1-0.2-0.1-0.3c-0.1-0.1-0.3-0.5-0.7-0.6
			c-0.1,0.1-0.5,0.8-0.9,0.5c-0.3,0.1,0,0.3-0.1,0.4c-0.1,0.3-0.4,0.8-0.7,1C59.8,107,60.1,107.3,60.2,107.3"/>
		<path class="st30" d="M60.2,107.3c0.1,0,0.5-0.1,0.8-0.2c0.7-0.4,1.5-0.9,1.7-1.2c0.1-0.1,0-0.2-0.1-0.3c-0.2,0.2-1.1,1-1.9,1.3
			c-0.1-0.1-0.2-0.2-0.2-0.3c-0.1,0.1-0.1,0.1-0.1,0.1C59.8,106.9,60,107.3,60.2,107.3"/>
		<path class="st30" d="M60.7,106.4c0.2,0.1,0.2,0.1,0.3,0c0-0.1-0.1-0.1-0.2-0.1C60.7,106.4,60.7,106.4,60.7,106.4 M60.9,106
			c0.1,0,0.3,0.1,0.3-0.1c0-0.1-0.1-0.1-0.2-0.1C61,105.8,60.9,106,60.9,106 M60.8,106c0.1,0,0.2,0.1,0.2,0.1c0,0.1-0.1,0.1-0.2,0.1
			C60.8,106.2,60.8,106.1,60.8,106"/>
		<path class="st19" d="M50.1,104.6l-1.2-0.2c-0.1,0.4-0.7,2.7-0.8,2.9c0,0.1,1.3,0.3,1.3,0C49.1,106.3,49.9,105.1,50.1,104.6"/>
		<path class="st39" d="M56.9,88.7L56.9,88.7c-0.1-0.1-3.6-0.4-3.8,0l0,0c-1.3,3.1-2.5,6.8-2.8,8.9c-0.4,2.2-2.1,8.1-2,8.2
			c0.1,0.2,1.4,0.2,1.5,0.2c0.1-0.1,1.6-3.4,2.2-4.6c0.4-1,0.4-2.6,0.7-3.2c0.7-1.4,2.5-3.5,3.3-5.8C56.3,91.5,58.1,90.8,56.9,88.7"
			/>
		<path class="st38" d="M46.7,107.7c0.4,0.1,1,0.2,1.2,0.2c0.8,0.1,1.5,0,1.6-0.1c0.1-0.1,0.1-0.2,0.1-0.3c0-0.2,0-0.5-0.2-0.8
			c-0.2,0.1-0.8,0.4-1-0.1c-0.3-0.1-0.2,0.2-0.2,0.2c-0.2,0.2-0.7,0.5-1.1,0.4C46.5,107.3,46.4,107.7,46.7,107.7"/>
		<path class="st30" d="M46.6,107.8c0.1,0,0.5,0.2,0.8,0.2c0.8,0.1,1.7,0.1,2.1,0c0.1-0.1,0.1-0.2,0.1-0.3c-0.3,0.1-1.5,0.2-2.3,0
			c0-0.1,0-0.3-0.1-0.4c-0.1,0-0.1,0-0.2,0C46.5,107.3,46.4,107.7,46.6,107.8"/>
		<path class="st30" d="M47.4,107.3c0.1,0.1,0.1,0.2,0.2,0.2c0,0,0-0.1-0.1-0.2C47.6,107.3,47.5,107.3,47.4,107.3 M47.9,107
			c0.1,0.1,0.2,0.2,0.2,0.1s-0.1-0.1-0.1-0.2L47.9,107z M47.9,107.1c0.1,0.1,0.1,0.1,0.1,0.2c-0.1,0.1-0.1,0-0.2-0.1L47.9,107.1z"/>
		<path class="st19" d="M55.6,78.3c0,0-3,1.7-3.1,1.6c-0.1-0.1,0.7-2.2,0.1-3.2c-0.2-0.1-0.4,0-0.7,0.1s-0.4,0.2-0.5,0.1
			c-0.2-0.2-0.1-0.3-0.1-0.6c-0.1-0.2-0.1-0.4-0.2-0.5c-0.1-0.1,0.1-0.1,0.4-0.3c0.4-0.2,0.6-0.4,0.4-0.3c-0.4,0.2-1.1,0.1-1-0.1
			c0.1-0.1,0-0.4-0.2-0.5c-0.1,0-0.3-0.1-0.4-0.2c-0.1-0.2,0.3-0.1,0.5-0.7c0.2-0.4,0.1-0.7,0.1-1.3c0.1-0.9,0.5-1.1,0.6-1.2
			c1-0.7,3.9-1,4.8,1.5c0.2,0.5-0.5,2.5-1.5,3.2C54.4,76.3,55.1,77.9,55.6,78.3"/>
		<path class="st40" d="M56.5,72.9c-0.1,0.3,1,2-0.9,2.8c-0.8,0.4-0.7,0.8-0.8,1c-0.4,0-0.7-1.6-0.7-1.6c0.5-0.5,0.4-0.9,0.4-1.2
			c-0.1-0.3-0.4-0.5-0.8-0.2c-0.7,0.5-2.5-1.9-2.6-1.9c-0.1-0.2,0.5-1,1.1-1.2c1-0.6,2.3-1.1,3.3,0.2c-0.1-0.4,1.6-1.6,2.5-0.1
			C58.3,71.2,58.1,73.4,56.5,72.9"/>
		<path class="st38" d="M58,80.2c0.3-0.8,0.7-3.6-1.4-3.1c-1,0.2-1.4,0.2-1.6,0.1c-0.1-0.1-0.1-0.1-0.1-0.1
			c-1.4,1.9-2.4,0.7-2.6,1.9c-0.2,1.1-1,2.7-1.1,3.3c-0.2,1.4,1.8,5.1,0.4,8.5c0.5,1,6,0.8,6.3,0.1c0.9-3.2-1.7-10.7-1.7-10.9
			C56.6,81.3,57.7,81.1,58,80.2"/>
		<path class="st41" d="M53.6,88.1c0,0,1.1-1.9,0.8-3s-1.2-4.2-1.2-4.2s2.3,3,2.4,4.2C55.7,86.4,53.6,88.1,53.6,88.1"/>
		<path class="st41" d="M54.1,90.6c-1,0-1.6-1.5-1-2.2C53.1,88.4,54,90.2,54.1,90.6C54.1,90.6,54.1,90.6,54.1,90.6"/>
		<path class="st41" d="M56.3,80c0,0-1.4-1.3-2.2-1.3s-1.6,0.4-1.6,0.4s0.7-0.5,1.6-0.5c0.3,0,0.5,0.1,0.8,0.2
			C55.9,79.4,56.3,80,56.3,80"/>
		<path class="st19" d="M54.9,89.2c0.6-0.3-0.3-1.6-0.5-1.2c-0.5,1-1.3,0.8-1.4,1.2c-0.2,0.4,0.4,1.2,0.8,1
			C54.1,90.1,54.7,89.3,54.9,89.2"/>
		<path class="st42" d="M57.5,85.2c0-1.6-1.3-4.2-2.2-5.6c-0.5-0.7-2-0.4-2.2,0.1C52.4,81.4,55,84.2,55,85c0,0.4-1.3,2.7-1.6,3.3
			c-0.1,0.1,1,1.7,1.6,1.6C55.6,89.7,57.5,85.8,57.5,85.2"/>
		<path class="st43" d="M176.2,85.4c-0.2-0.3-0.4-0.7-0.4-1c-0.1-0.2-0.1-0.7,0.2-0.8c0.8-0.3,1.1,1.9,1.1,2.3
			c0.1,0.4,0.2,1.3,0.2,1.3S176.5,86,176.2,85.4"/>
		<path class="st43" d="M160.3,89.8c0.1-0.4,0.1-0.7,0.1-1.1c0-0.2-0.2-0.7-0.4-0.7c-0.8-0.1-0.4,2.2-0.4,2.5
			c0.1,0.4,0.2,1.3,0.2,1.3S160.2,90.5,160.3,89.8"/>
	</g>
	<rect x="159.1" y="83.9" class="st44" width="1.1" height="16.6"/>
	<rect x="156.5" y="92.7" class="st44" width="1.1" height="8.5"/>
	<polygon class="st45" points="157.7,92.7 157.7,101.2 157.9,101.1 157.9,92.7 	"/>
	<polygon class="st45" points="160.3,83.9 160.3,100.5 160.5,100.4 160.5,83.9 	"/>
	<rect x="177.2" y="83.9" class="st44" width="1.1" height="16.6"/>
	<rect x="179.9" y="92.7" class="st44" width="1.1" height="8.5"/>
	<polygon class="st45" points="179.6,92.7 179.6,101.1 179.9,101.2 179.9,92.7 	"/>
	<polygon class="st45" points="177,83.9 177,100.4 177.2,100.5 177.2,83.9 	"/>
	<g>
		<path class="st46" d="M183.3,92.8h-29l1.3-0.7c0.2-0.1,0.3-0.1,0.5-0.1h25.5c0.2,0,0.4,0.1,0.5,0.1L183.3,92.8z"/>
		<path class="st47" d="M183.3,94.4h-29.1c-0.1,0-0.1-0.1-0.1-0.1v-1.6c0-0.1,0.1-0.1,0.1-0.1h29.1c0.1,0,0.1,0.1,0.1,0.1
			L183.3,94.4C183.4,94.4,183.3,94.4,183.3,94.4"/>
		<path class="st47" d="M181.4,90.5h-25.3c-0.1,0-0.1-0.1-0.1-0.1v-1.6c0-0.1,0.1-0.1,0.1-0.1h25.3c0.1,0,0.1,0.1,0.1,0.1
			L181.4,90.5C181.5,90.4,181.5,90.5,181.4,90.5"/>
		<path class="st47" d="M181.4,88h-25.3C156,88,156,88,156,88v-1.6c0-0.1,0.1-0.1,0.1-0.1h25.3c0.1,0,0.1,0.1,0.1,0.1L181.4,88
			C181.5,88,181.5,88,181.4,88"/>
		<path class="st47" d="M181.4,85.6h-25.3c-0.1,0-0.1-0.1-0.1-0.1V84c0-0.1,0.1-0.1,0.1-0.1h25.3c0.1,0,0.1,0.1,0.1,0.1L181.4,85.6
			C181.5,85.6,181.5,85.6,181.4,85.6"/>
		<path class="st48" d="M162.5,92.1c-0.7,0-1.1,0.1-1.1,0.2c0,0.1,0.5,0.2,1.1,0.2s1.1-0.1,1.1-0.2
			C163.7,92.1,163.1,92.1,162.5,92.1"/>
	</g>
	<polygon class="st49" points="163.2,92.3 161.9,92.3 161.6,89 163.5,89 	"/>
	<polygon class="st50" points="161.5,88.6 161.3,89 163.7,89 163.6,88.6 	"/>
	<polygon class="st49" points="161.7,88.3 161.6,88.6 163.5,88.6 163.3,88.3 	"/>
	<polygon class="st51" points="161.6,89.8 161.7,91.1 163.4,91.1 163.5,89.8 	"/>
	<g>
		<path class="st52" d="M175.1,92.6h-7.4c-0.2,0-0.4-0.2-0.4-0.4v-3.5c0-0.2,0.2-0.4,0.4-0.4h7.4c0.2,0,0.4,0.2,0.4,0.4v3.5
			C175.5,92.4,175.3,92.6,175.1,92.6"/>
		<path class="st53" d="M168.3,87.4c0-0.1-0.1-0.1-0.1-0.2c-0.3-0.7-0.5-1.4-0.7-2.2c-0.1-0.2-0.1-0.5-0.3-0.7
			c-0.3-0.2-0.8-0.2-1.2-0.2c-0.2,0-0.4,0.1-0.4,0.2c-0.2,0.2-0.1,0.7-0.2,1c-0.1,1.6,1.2,2.9,2.2,3.9c0.2,0.2,0.4,0.4,0.7,0.5
			c0.3,0.1,0.6,0,0.7-0.2c0.1-0.2,0.1-0.4-0.1-0.6c-0.1-0.4-0.3-0.7-0.5-1C168.5,87.7,168.4,87.5,168.3,87.4"/>
		<path class="st53" d="M174.5,87.4c0-0.1,0.1-0.1,0.1-0.2c0.3-0.7,0.5-1.4,0.7-2.2c0.1-0.2,0.1-0.5,0.3-0.7
			c0.3-0.2,0.8-0.2,1.2-0.2c0.2,0,0.4,0.1,0.4,0.2c0.2,0.2,0.1,0.7,0.2,1c0.1,1.6-1.2,2.9-2.2,3.9c-0.2,0.2-0.4,0.4-0.7,0.5
			c-0.3,0.1-0.6,0-0.7-0.2c-0.1-0.2-0.1-0.4,0.1-0.6c0.1-0.4,0.3-0.7,0.5-1C174.3,87.7,174.4,87.5,174.5,87.4"/>
		<path class="st53" d="M166.4,82.2c-0.1,0.2-0.2,0.5-0.3,0.7c-0.3,0.8-1.1,2.3-0.2,3c0.1,0.1,0.3,0.1,0.4,0.1
			c0.4-0.1,0.5-0.4,0.7-0.7c0.5-0.8,0.8-1.7,1.3-2.5c0.4-0.6,0.5-1.3,0.7-2c0.1-0.4,0.2-1.1-0.1-1.4c-0.2-0.1-0.4-0.2-0.6-0.2
			c-0.1,0-0.2,0.1-0.4,0.1c-0.1,0.1-0.2,0.1-0.3,0.2c-0.2,0.2-0.3,0.4-0.4,0.7c-0.1,0.3-0.3,0.5-0.4,0.8
			C166.7,81.5,166.5,81.9,166.4,82.2"/>
		<path class="st54" d="M166.8,80.9c0.5-0.8,1.1-1.6,2-1.9c0.2-0.1,0.6-0.1,0.8,0.1c0.1,0.1,0.2,0.3,0.2,0.5c0,0.2-0.1,0.5-0.2,0.8
			c-0.2,0.7-0.4,1.3-0.7,1.9c-0.1,0.1-0.5,1.6-0.5,1.6c-0.4-0.3-0.8-0.7-1.2-0.8c-0.1-0.1-1.1-0.5-1.1-0.5
			C166.2,82,166.5,81.4,166.8,80.9"/>
		<path class="st53" d="M176.5,82.2c0.1,0.2,0.2,0.5,0.3,0.7c0.3,0.8,1.1,2.3,0.2,3c-0.1,0.1-0.3,0.1-0.4,0.1
			c-0.4-0.1-0.5-0.4-0.7-0.7c-0.5-0.8-0.8-1.7-1.3-2.5c-0.4-0.6-0.5-1.3-0.7-2c-0.1-0.4-0.2-1.1,0.1-1.4c0.2-0.1,0.4-0.2,0.6-0.2
			c0.1,0,0.2,0.1,0.4,0.1c0.1,0.1,0.2,0.1,0.3,0.2c0.2,0.2,0.3,0.4,0.4,0.7c0.1,0.3,0.3,0.5,0.4,0.8
			C176.2,81.5,176.3,81.9,176.5,82.2"/>
		<path class="st54" d="M176.1,80.9c-0.5-0.8-1.1-1.6-2-1.9c-0.2-0.1-0.6-0.1-0.8,0.1c-0.1,0.1-0.2,0.3-0.2,0.5
			c0,0.2,0.1,0.5,0.2,0.8c0.2,0.7,0.4,1.3,0.7,1.9c0.1,0.1,0.5,1.6,0.5,1.6c0.4-0.3,0.8-0.7,1.2-0.8c0.1-0.1,1.1-0.5,1.1-0.5
			C176.6,82,176.3,81.4,176.1,80.9"/>
		<path class="st51" d="M174.7,87.5L174.7,87.5c-0.2-1-0.2-2-0.2-3c0-1,0.2-1.9,0.2-2.9c0.1-1.1-0.2-2.7-1.6-2.8
			c-0.6-0.1-1.1-0.1-1.7-0.1l0,0h-0.1h-0.1l0,0c-0.6,0-1.1,0.1-1.7,0.1c-1.4,0.1-1.6,1.7-1.6,2.8c0,1,0.2,1.9,0.3,2.9
			c0,1,0,2-0.2,2.9v0.1c-0.1,0.2-0.1,0.4-0.1,0.5c0.1,0.4,1,0.6,1.3,0.7c0.6,0.2,1.2,0.2,1.8,0.3c0.1,0,0.1,0,0.2,0l0,0h0.1h0.1l0,0
			c0.1,0,0.1,0,0.2,0c0.6-0.1,1.3-0.1,1.8-0.3c0.3-0.1,1.3-0.3,1.3-0.7C174.9,87.8,174.8,87.7,174.7,87.5"/>
		<path class="st53" d="M170.5,79.7c0.8,0.5,2.5,0.1,2-1c-0.1-0.1-0.1-0.2-0.2-0.4c-0.1-0.2-0.1-0.5-0.1-0.7c0-0.3,0-0.5,0-0.8
			c-0.3-0.1-0.5-0.1-0.9-0.1c-0.3,0-0.5,0-0.8,0h-0.1v0.1c-0.1,0.4,0,0.8,0,1.1c0,0.2-0.1,0.5-0.1,0.7c-0.1,0.3-0.4,0.6-0.2,0.9
			C170.4,79.6,170.4,79.7,170.5,79.7"/>
		<path class="st55" d="M172.4,78.3c-0.1-0.2-0.1-0.4,0-0.7c0-0.3,0-0.5,0-0.8c-0.3-0.1-0.5-0.1-0.9-0.1c-0.3,0-0.5,0-0.8,0h-0.1
			v0.1c-0.1,0.4,0,0.8,0,1.1c0,0.1,0,0.2-0.1,0.3c0.1,0.1,0.1,0.1,0.1,0.1c0.4,0.2,0.8,0.3,1.2,0.2
			C172.1,78.5,172.3,78.4,172.4,78.3"/>
	</g>
	<polygon class="st56" points="166.8,83.9 166.8,84.1 176,84.1 176,83.9 	"/>
	<g>
		<path class="st56" d="M175.4,89.9h-8l-0.6-6c0-0.1,0.1-0.2,0.2-0.2h8.8c0.1,0,0.2,0.1,0.2,0.2L175.4,89.9z"/>
		<path class="st57" d="M175.5,90.1h-8.1l-0.6-6c0-0.1,0.1-0.2,0.2-0.2h9c0.1,0,0.2,0.1,0.2,0.2L175.5,90.1z"/>
	</g>
	<rect x="167.3" y="90.1" class="st56" width="8.1" height="0.4"/>
	<g>
		<path class="st56" d="M172,87c0,0.3-0.2,0.5-0.5,0.5s-0.5-0.2-0.5-0.5c0-0.3,0.2-0.5,0.5-0.5S172,86.7,172,87"/>
		<path class="st53" d="M173.1,98c0,0.3,0,0.6,0,0.9c0,0.3-0.3,2,0.4,1.9c0.1,0,0.2-0.2,0.3-0.3c0.4-0.7,0.6-1.5,0.8-2.3"/>
		<path class="st58" d="M174.2,99.6c0,0.4-0.1,0.7-0.1,1.1c0,0.1-0.1,0.3-0.1,0.4c-0.1,0.2-0.1,0.5-0.2,0.7
			c-0.1,0.2-0.1,0.4-0.1,0.5c0,0.1-0.1,0.2-0.1,0.2c-0.1,0.1-0.2,0.1-0.3,0.1c-0.2,0.1-0.4,0.1-0.7,0.2c-0.1,0-0.3,0.1-0.4-0.1
			c-0.1-0.1-0.1-0.1-0.1-0.2c-0.1-0.1-0.1-0.2-0.1-0.3c-0.1-0.3,0.1-0.6,0.2-0.8c0.2-0.3,0.4-0.5,0.5-0.9c0.1-0.3,0.2-0.7,0.3-1"/>
		<path class="st59" d="M174.2,100.9c0-0.1,0-0.1,0.1-0.2c0.1-0.1,0.1-0.3,0-0.4c0,0,0-0.1-0.1-0.1c-0.1-0.1-0.1,0-0.1,0
			c-0.1,0.1-0.1,0.1-0.1,0.1c0-0.1-0.2-0.2-0.2-0.2c-0.1-0.1-0.2-0.1-0.3-0.1c-0.1,0-0.2-0.1-0.3,0c-0.1,0-0.2,0.1-0.2,0.2
			c0-0.1-0.1-0.1-0.1-0.1c-0.1,0-0.1,0.1-0.2,0.1c-0.1,0.1-0.1,0.1-0.1,0.2c-0.1,0.3-0.2,0.6-0.4,0.9c-0.1,0.2-0.2,0.5-0.3,0.8
			c-0.1,0.2-0.1,0.4-0.1,0.6c0,0.1,0,0.1,0.1,0.2c0.2,0.7,1.1,0.5,1.6,0.1c0.3-0.3,0.4-0.7,0.5-1.1
			C174.1,101.5,174.1,101.2,174.2,100.9"/>
		<path class="st50" d="M172.9,77.1c-0.2,0.3-0.6,0.5-1,0.7c-0.1,0.1-0.2,0.1-0.3,0.1c-0.3,0.1-0.6-0.1-0.8-0.3
			c-0.4-0.2-0.7-0.5-0.9-0.8c-0.3-0.3-0.4-0.7-0.6-1.1c-0.2-0.4-0.2-0.8-0.2-1.2c0.1-0.4-0.2-0.8-0.1-1.3c0.1-0.3,0.2-0.5,0.5-0.7
			c0.1-0.1,0.3-0.2,0.4-0.2c0.4-0.1,0.7,0.2,1,0.2c0.4,0,0.7-0.1,1-0.2c0.3-0.1,0.6-0.1,0.9,0c0.3,0.1,0.5,0.4,0.7,0.7
			c0.2,0.2,0.4,0.4,0.6,0.7c0.2,0.3,0.3,0.7,0.2,1.1c-0.1,0.3-0.2,0.7-0.4,1c-0.1,0.2-0.3,0.5-0.5,0.7c-0.1,0.2-0.2,0.3-0.4,0.5
			C173.1,76.9,173,77,172.9,77.1"/>
		<path class="st53" d="M173.3,75.6c0-0.4-0.1-0.7-0.2-1c-0.4-1.2-1.9-1.5-2.8-0.6c-1,1-0.6,3.3,0.5,4.1c0.3,0.2,0.7,0.3,1,0.2
			C172.9,78,173.3,76.7,173.3,75.6"/>
		<path class="st55" d="M173.5,74.6c-0.5-1.2-2.2-1.5-3.2-0.6c-0.2,0.2-0.5,0.5-0.6,0.8c-0.1,0.3-0.1,0.7-0.1,1
			c0-0.3,0.2-0.5,0.4-0.7c0.1-0.1,0.2-0.2,0.3-0.3c0.1-0.1,0.3-0.3,0.3-0.4c0.1,0.1,0.2,0.2,0.4,0.4c0.2,0.1,0.4,0.1,0.6,0.2
			c0.4,0.1,0.7,0.2,1,0.5c0.2,0.2,0.4,0.6,0.5,0.9c0.1,0.1,0.1,0.3,0.2,0.2c0.1,0,0.3-0.2,0.3-0.2c0.1-0.2,0.1-0.5,0.1-0.8
			C173.7,75.2,173.7,74.9,173.5,74.6"/>
		<path class="st50" d="M172.7,75.4c0.1,0.2,0.1,0.3,0.2,0.5c0.1,0.2,0.2,0.5,0.3,0.8c0.4-0.2,0.7-0.8,0.8-1.2
			c0.2-0.4,0.2-0.7,0.1-1c-0.1-0.2-0.2-0.5-0.4-0.7c-0.5-0.5-1.4-0.8-2.2-0.7c-0.3,0-0.5,0.1-0.8,0.2c-0.2,0.1-0.4,0.1-0.6,0.3
			c-0.2,0.2-0.2,0.4-0.4,0.7c-0.1,0.4-0.2,0.8-0.2,1.1c0,0.2,0,0.5,0.3,0.7c0-0.2,0-0.3,0-0.5c0-0.1,0-0.1,0-0.2
			c0-0.1,0.1-0.1,0.1-0.2c0.1-0.2,0.1-0.4,0.2-0.5c0.2-0.2,0.4-0.4,0.4-0.7c0.4,0.4,0.8,0.6,1.4,0.8C172.2,74.9,172.5,75,172.7,75.4
			L172.7,75.4z"/>
		<path class="st53" d="M173.3,75.6c0.5-0.2,0.6,0.4,0.5,0.7c-0.1,0.1-0.1,0.2-0.2,0.4c-0.1,0.1-0.4,0.4-0.6,0.2
			c-0.1-0.1-0.1-0.2-0.1-0.3C172.9,76.3,173,75.8,173.3,75.6"/>
		<path class="st53" d="M170,75.6c-0.5-0.2-0.6,0.4-0.5,0.7c0.1,0.1,0.1,0.2,0.2,0.4c0.1,0.1,0.4,0.4,0.6,0.2
			c0.1-0.1,0.1-0.2,0.1-0.3C170.3,76.3,170.3,75.8,170,75.6"/>
		<path class="st50" d="M174,75.7l-0.2-0.1v-0.1c0.2-0.4,0.7-1.1,0.5-1.5c-0.1-0.1-0.2-0.2-0.4-0.4c-0.1-0.1-0.3-0.2-0.4-0.4
			c-0.1-0.1-0.1-0.2-0.2-0.4c0-0.1-0.1-0.1-0.1-0.2c-0.2-0.4-0.6-0.6-1.1-0.5c-0.2,0.1-0.3,0.1-0.5,0.2c-0.4,0.1-0.7,0.3-1,0.2
			c-0.1-0.1-0.2-0.1-0.4-0.2c-0.1-0.1-0.2-0.1-0.3-0.1c-0.2-0.1-0.5,0-0.7,0.1c-0.3,0.2-0.5,0.5-0.5,0.8c-0.1,0.3,0,0.5,0.2,0.8
			l0.1,0.1c0.1,0.1,0.2,0.3,0.2,0.5h-0.2c0-0.1-0.1-0.2-0.2-0.4c0,0-0.1-0.1-0.1-0.1c-0.2-0.2-0.2-0.6-0.2-0.9
			c0.1-0.4,0.2-0.7,0.6-0.9c0.2-0.1,0.5-0.2,0.8-0.1c0.1,0.1,0.2,0.1,0.4,0.2c0.1,0.1,0.2,0.1,0.3,0.1c0.3,0.1,0.6-0.1,0.9-0.2
			c0.2-0.1,0.4-0.2,0.5-0.2c0.5-0.1,1.1,0.1,1.3,0.6c0.1,0.1,0.1,0.2,0.1,0.2c0.1,0.1,0.1,0.2,0.1,0.3c0.1,0.1,0.2,0.2,0.4,0.3
			c0.2,0.1,0.4,0.2,0.4,0.4C174.9,74.5,174.4,75.2,174,75.7L174,75.7z"/>
		<path class="st60" d="M170.4,73.1c0.4,0,0.8-0.1,1.1-0.1c0.2-0.1,0.4-0.1,0.6-0.1c0.1,0,0.2,0,0.3,0c0.1,0,0.2,0,0.3,0
			c0.2,0.1,0.4,0.1,0.5,0.3c0.1,0.1,0.1,0.2,0.1,0.3c0,0.1,0,0.2,0,0.3c0,0.1,0.1,0.2,0.1,0.2c0.1,0.1,0.1,0.2,0.2,0.2
			c0.1,0.1,0.1,0.2,0.1,0.3c0,0.1,0,0.2,0,0.3c0-0.1,0-0.2,0-0.3c0-0.1-0.1-0.2-0.1-0.3c-0.1-0.1-0.1-0.2-0.2-0.2
			c-0.1-0.1-0.1-0.2-0.1-0.2c0-0.1,0-0.2-0.1-0.3c0-0.1,0-0.2-0.1-0.2c0-0.1-0.1-0.1-0.1-0.1c-0.1,0-0.1-0.1-0.1-0.1
			c-0.1-0.1-0.2-0.1-0.2-0.1c-0.1,0-0.2,0-0.3-0.1c-0.1,0-0.2,0-0.3,0c-0.2,0-0.4,0-0.6,0.1c-0.2,0-0.4,0.1-0.6,0.1
			C170.8,73.1,170.6,73.1,170.4,73.1"/>
		<path class="st50" d="M174.5,98.8c0.1-0.4,0.3-1.5,0.4-1.9c0.4-1.9,0.7-3.6,0.5-5.6c-0.1-0.4-0.2-0.9-0.5-1.3
			c-0.8-0.9-2-0.3-2.2,0.8c-0.2,1.8,0,3.3,0.1,5.1c0,0.3,0.1,0.8,0.1,1.1c0,0.2,0,1.1,0,1.4"/>
		<path class="st53" d="M169.8,98c0,0.3,0,0.6,0,0.9c0,0.3,0.3,2-0.4,1.9c-0.1,0-0.2-0.2-0.3-0.3c-0.4-0.7-0.6-1.5-0.8-2.3"/>
		<path class="st58" d="M168.7,99.6c0,0.4,0.1,0.7,0.1,1.1c0,0.1,0.1,0.3,0.1,0.4c0.1,0.2,0.1,0.5,0.2,0.7s0.1,0.4,0.1,0.5
			c0,0.1,0.1,0.2,0.1,0.2c0.1,0.1,0.2,0.1,0.3,0.1c0.2,0.1,0.4,0.1,0.7,0.2c0.1,0,0.3,0.1,0.4-0.1c0.1-0.1,0.1-0.1,0.1-0.2
			c0.1-0.1,0.1-0.2,0.1-0.3c0.1-0.3-0.1-0.6-0.2-0.8c-0.2-0.3-0.4-0.5-0.5-0.9c-0.1-0.3-0.2-0.7-0.3-1"/>
		<path class="st59" d="M168.6,100.9c0-0.1,0-0.1-0.1-0.2c-0.1-0.1-0.1-0.3,0-0.4c0,0,0-0.1,0.1-0.1c0.1-0.1,0.1,0,0.1,0
			c0.1,0.1,0.1,0.1,0.1,0.1c0-0.1,0.2-0.2,0.2-0.2c0.1-0.1,0.2-0.1,0.3-0.1c0.1,0,0.2-0.1,0.3,0c0.1,0,0.2,0.1,0.2,0.2
			c0-0.1,0.1-0.1,0.1-0.1c0.1,0,0.1,0.1,0.2,0.1c0.1,0.1,0.1,0.1,0.1,0.2c0.1,0.3,0.2,0.6,0.4,0.9c0.1,0.2,0.2,0.5,0.3,0.8
			c0.1,0.2,0.1,0.4,0.1,0.6c0,0.1,0,0.1-0.1,0.2c-0.2,0.7-1.1,0.5-1.6,0.1c-0.3-0.3-0.4-0.7-0.5-1.1
			C168.8,101.5,168.8,101.2,168.6,100.9"/>
		<path class="st50" d="M168.3,98.8c-0.1-0.4-0.3-1.5-0.4-1.9c-0.4-1.9-0.7-3.6-0.5-5.6c0.1-0.4,0.2-0.9,0.5-1.3
			c0.8-0.9,2-0.3,2.2,0.8c0.2,1.8,0,3.3-0.1,5.1c0,0.3-0.1,0.8-0.1,1.1c0,0.2,0,1.1,0,1.4"/>
	</g>
</g>
</svg>
