<svg id="Layer_1" data-name="Layer 1" xmlns="http://www.w3.org/2000/svg" viewBox="0 0 75.51 66.42"><defs><style>.cls-1{fill:#efd146;}</style></defs><title>Mc-logo</title><g id="uj55g9.tif"><path d="M66.42,66.42c0-1.43,0-2.86,0-4.3,0-1.14,0-2.28-.07-3.42,0-.67,0-1.35,0-2-.06-1.12-.08-2.24-.13-3.36S66,50.89,66,49.68c-.06-1-.12-2-.19-3-.09-1.2-.19-2.4-.29-3.6-.09-1-.17-2.11-.27-3.16s-.24-2.14-.35-3.22c-.15-1.43-.34-2.86-.53-4.29-.23-1.77-.51-3.53-.81-5.29-.48-2.74-1-5.47-1.74-8.16a44.82,44.82,0,0,0-2-6,17.38,17.38,0,0,0-1.73-3.24,6,6,0,0,0-1.37-1.43,2.6,2.6,0,0,0-3.27.06,6.89,6.89,0,0,0-1.61,1.75,19.68,19.68,0,0,0-1.91,3.74,54.14,54.14,0,0,0-2.26,7.48c-.33,1.39-.62,2.79-.89,4.2-.37,2-.71,4-1,6-.16,1.2-.33,2.41-.47,3.61s-.3,2.52-.41,3.78c-.09,1-.2,2-.29,3.06s-.13,1.93-.2,2.89c-.06.8-.11,1.59-.17,2.39,0,.37,0,.74-.06,1.12,0,.62,0,1.24-.08,1.86C44.05,51.46,44,52.7,44,54c0,.5,0,1,0,1.52-.07,2-.06,4-.06,6,0,.34,0,.36-.38.37H35a.2.2,0,0,1-.22-.21c0-.1,0-.21,0-.31,0-1.29,0-2.57,0-3.86,0-1.13-.06-2.26-.08-3.4s-.07-2.19-.12-3.29-.11-2.47-.18-3.7c-.06-.94-.12-1.88-.19-2.83S34,42.46,34,41.55s-.17-2-.27-3.07-.2-2-.32-3S33.1,33.37,33,32.3c-.17-1.34-.38-2.67-.6-4-.36-2.21-.77-4.4-1.27-6.58a53.56,53.56,0,0,0-2.49-8.21A17.78,17.78,0,0,0,26.73,10a6.72,6.72,0,0,0-1.47-1.59,3,3,0,0,0-1.57-.62,2.39,2.39,0,0,0-1.45.39A5.57,5.57,0,0,0,20.6,9.77a14.53,14.53,0,0,0-1.42,2.56,45.53,45.53,0,0,0-2.56,7.9c-.69,2.82-1.22,5.68-1.68,8.55-.21,1.33-.41,2.67-.59,4s-.33,2.57-.47,3.86c-.11,1.1-.24,2.19-.35,3.28-.07.8-.13,1.6-.2,2.39s-.16,1.78-.23,2.67S13,46.47,13,47.21s-.11,1.7-.17,2.55c0,.42,0,.85-.06,1.27-.06.64-.06,1.29-.09,1.93-.06,1.22-.1,2.45-.14,3.67,0,.49,0,1,0,1.46-.07,1.43,0,2.87-.08,4.3,0,1.17,0,2.34,0,3.52v.18c0,.22-.05.26-.26.27a2.09,2.09,0,0,1-.25,0H3.73c-.5,0-.5,0-.5-.5,0-.69,0-1.39,0-2.08,0-1,0-1.91.06-2.87,0-1.13.07-2.26.12-3.39s.11-2.28.19-3.41.15-2.26.25-3.39.23-2.45.35-3.68c.18-1.89.42-3.77.68-5.66.32-2.35.71-4.69,1.15-7,.5-2.65,1.09-5.29,1.77-7.9A78.78,78.78,0,0,1,11,16.84,42.87,42.87,0,0,1,14,10.61a23.5,23.5,0,0,1,2.9-3.92A11.78,11.78,0,0,1,20.36,4a7.1,7.1,0,0,1,6.29-.14A10.86,10.86,0,0,1,29.73,6,23.17,23.17,0,0,1,34,11.45a50.41,50.41,0,0,1,3.67,8.1c.61,1.68,1.15,3.39,1.64,5.1,0,.06,0,.13.08.17s.08-.14.1-.22A75.89,75.89,0,0,1,42,17a44,44,0,0,1,3.12-6.26A22,22,0,0,1,48.89,6a10.4,10.4,0,0,1,4-2.46,7,7,0,0,1,5.24.34A10.45,10.45,0,0,1,61,5.86,22.44,22.44,0,0,1,65,11a44.15,44.15,0,0,1,2.89,6,77.6,77.6,0,0,1,2.88,8.65c.83,3,1.51,6.13,2.09,9.23.42,2.19.76,4.38,1.07,6.58.19,1.41.38,2.82.52,4.23s.29,2.74.42,4.12c.08.91.12,1.82.21,2.73.1,1.12.14,2.25.23,3.38,0,.4,0,.81,0,1.21.07,1.14.11,2.28.14,3.42s0,2.06,0,3.09a.86.86,0,0,0,.05.39v2.37Z"/></g><g id="uj55g9.tif-2" data-name="uj55g9.tif"><path class="cls-1" d="M63.19,63.2c0-1.43,0-2.87,0-4.3,0-1.14,0-2.28-.06-3.42,0-.68,0-1.35,0-2-.06-1.12-.09-2.24-.13-3.36s-.12-2.42-.19-3.63c-.05-1-.11-2-.18-3-.09-1.2-.2-2.4-.3-3.6s-.16-2.11-.27-3.16-.23-2.15-.34-3.22c-.15-1.44-.34-2.86-.53-4.29q-.36-2.66-.82-5.3c-.47-2.74-1-5.46-1.74-8.16a43.84,43.84,0,0,0-2-6,16.49,16.49,0,0,0-1.74-3.23,5.64,5.64,0,0,0-1.37-1.43,2.59,2.59,0,0,0-3.26.05A7,7,0,0,0,48.6,6.87a19.06,19.06,0,0,0-1.9,3.74,55,55,0,0,0-2.27,7.47c-.33,1.4-.62,2.8-.88,4.21-.38,2-.71,4-1,6-.17,1.2-.34,2.4-.48,3.61s-.29,2.51-.4,3.77c-.09,1-.2,2.05-.29,3.07s-.14,1.92-.2,2.89c-.06.79-.12,1.59-.17,2.38,0,.38,0,.75-.06,1.12,0,.62,0,1.25-.08,1.87-.07,1.24-.11,2.49-.15,3.73,0,.51,0,1,0,1.52-.08,2-.06,4-.07,6,0,.34,0,.36-.38.36H31.78a.21.21,0,0,1-.22-.21c0-.11,0-.21,0-.31,0-1.29,0-2.58,0-3.87,0-1.13-.06-2.26-.08-3.39s-.08-2.2-.12-3.3-.12-2.46-.19-3.69c0-1-.11-1.89-.18-2.83s-.15-1.82-.23-2.73-.17-2-.27-3.07-.21-2-.33-3-.27-2.14-.4-3.21c-.17-1.34-.38-2.67-.6-4-.36-2.2-.77-4.4-1.28-6.57a53.68,53.68,0,0,0-2.49-8.22,18.19,18.19,0,0,0-1.86-3.55A6.4,6.4,0,0,0,22,5.14a2.9,2.9,0,0,0-1.57-.63A2.5,2.5,0,0,0,19,4.9a5.69,5.69,0,0,0-1.64,1.64A15.54,15.54,0,0,0,16,9.1,45.81,45.81,0,0,0,13.4,17c-.69,2.83-1.23,5.68-1.68,8.55-.22,1.34-.41,2.67-.59,4s-.34,2.57-.47,3.86c-.11,1.09-.24,2.19-.35,3.28-.08.79-.14,1.59-.21,2.39s-.16,1.77-.22,2.66-.1,1.49-.15,2.24-.11,1.7-.17,2.54c0,.43,0,.85-.06,1.28-.05.64-.05,1.28-.08,1.93-.06,1.22-.1,2.44-.14,3.67,0,.48,0,1,0,1.46-.07,1.43,0,2.86-.08,4.29,0,1.18,0,2.35,0,3.52a1.21,1.21,0,0,1,0,.19c0,.22,0,.25-.26.27H.51c-.5,0-.51,0-.5-.5,0-.7,0-1.39,0-2.09.05-.95,0-1.91.06-2.86.05-1.13.08-2.26.13-3.39S.32,52,.39,50.88s.15-2.25.25-3.38S.88,45,1,43.81c.19-1.89.43-3.77.69-5.65.32-2.36.71-4.7,1.15-7,.49-2.65,1.09-5.28,1.77-7.89a77.23,77.23,0,0,1,3.15-9.62,43.23,43.23,0,0,1,3.06-6.22,24.31,24.31,0,0,1,2.9-3.93A12.17,12.17,0,0,1,17.14.8,7.11,7.11,0,0,1,23.42.66a11,11,0,0,1,3.09,2.08,23.18,23.18,0,0,1,4.21,5.49,49.22,49.22,0,0,1,3.68,8.1C35,18,35.54,19.71,36,21.43c0,.06,0,.12.08.16s.07-.14.09-.21a74.24,74.24,0,0,1,2.6-7.57,43.08,43.08,0,0,1,3.12-6.27,21.8,21.8,0,0,1,3.73-4.72,10.45,10.45,0,0,1,4-2.47,7.07,7.07,0,0,1,5.25.34,10.92,10.92,0,0,1,2.81,1.94,22.67,22.67,0,0,1,4,5.17,45.91,45.91,0,0,1,2.9,6,77.71,77.71,0,0,1,2.87,8.66c.84,3,1.52,6.13,2.1,9.23q.61,3.27,1.06,6.57c.2,1.41.38,2.82.53,4.24s.29,2.74.41,4.11c.09.91.13,1.82.21,2.73.11,1.13.14,2.26.23,3.39,0,.4,0,.8.06,1.21.06,1.14.11,2.28.13,3.42s0,2.06,0,3.08a.9.9,0,0,0,.05.4V63.2Z"/></g></svg>