<?xml version="1.0" encoding="utf-8"?>
<!-- Generator: Adobe Illustrator 24.0.0, SVG Export Plug-In . SVG Version: 6.00 Build 0)  -->
<svg version="1.1" id="Layer_1" xmlns="http://www.w3.org/2000/svg" xmlns:xlink="http://www.w3.org/1999/xlink" x="0px" y="0px"
	 viewBox="0 0 143.8 129" style="enable-background:new 0 0 143.8 129;" xml:space="preserve">
<style type="text/css">
	.st0{fill:#B7C6D0;}
	.st1{fill:#FFFFFF;}
	.st2{fill:#A1B8C7;}
	.st3{fill:#CD5A45;}
	.st4{fill:#934334;}
	.st5{fill:#E8BE43;}
	.st6{fill:#DCA07A;}
	.st7{fill:#BC8663;}
	.st8{fill:#8D6544;}
	.st9{fill:#E4B247;}
	.st10{fill:#96A4A0;}
	.st11{fill:#75807E;}
	.st12{fill:#CDDFD8;}
	.st13{fill:#BDCEC9;}
</style>
<polygon class="st0" points="71.7,43.5 94,43.5 99.6,43.5 97.1,110.7 94,110.7 71.7,110.7 68.6,110.7 66.1,43.5 "/>
<polygon class="st1" points="75.2,44 90.4,44 94.3,44 92.5,105.6 90.4,105.6 75.2,105.6 73.2,105.6 71.4,44 "/>
<path class="st0" d="M81.4,40.7L75.2,1.9c-0.1-0.8,0.4-1.6,1.2-1.7L77.9,0c0.8-0.1,1.5,0.4,1.7,1.2l6.2,39.5L81.4,40.7L81.4,40.7z"
	/>
<polygon class="st2" points="66.3,48.8 66.1,43.9 71.7,43.9 94,43.9 99.6,43.9 99.4,48.8 "/>
<rect x="75.9" y="43.7" class="st3" width="14.3" height="24.4"/>
<rect x="75.9" y="43.7" class="st4" width="14.3" height="5.1"/>
<path class="st0" d="M62.9,42.5c0,0.8,0.7,1.4,1.4,1.4h36.5c0.8,0,1.4-0.7,1.4-1.4v-2.2c0-0.8-0.7-1.4-1.4-1.4H64.4
	c-0.8,0-1.4,0.7-1.4,1.4V42.5z"/>
<path class="st5" d="M83.1,59.3c0-0.1,0-0.2,0.1-0.3c0.2-0.7,0.4-1.3,0.7-1.9c0.2-0.4,0.4-0.7,0.7-1.1c0.2-0.2,0.4-0.3,0.6-0.4
	c0.3-0.1,0.6,0,0.8,0.2c0.2,0.2,0.4,0.4,0.6,0.7c0.3,0.5,0.5,1.1,0.7,1.7c0.3,0.8,0.4,1.6,0.6,2.5c0.1,0.5,0.2,1.1,0.2,1.6
	c0,0.4,0.1,0.8,0.1,1.3c0,0.8,0.1,1.6,0.1,2.4c0,0.1,0,0.1-0.1,0.1h-1.2c0,0-0.1,0-0.1-0.1c0-0.5,0-1.1,0-1.6c0-0.7,0-1.3-0.1-2
	c0-0.7-0.1-1.4-0.2-2.1c-0.1-0.8-0.2-1.6-0.5-2.4c-0.1-0.4-0.2-0.7-0.4-1c-0.1-0.1-0.1-0.2-0.2-0.3c-0.2-0.2-0.4-0.2-0.5,0
	c-0.1,0.1-0.2,0.2-0.3,0.4c-0.2,0.3-0.3,0.6-0.4,1c-0.2,0.5-0.3,1.1-0.4,1.7c-0.1,0.5-0.2,1-0.2,1.5c0,0.5-0.1,0.9-0.1,1.4
	c-0.1,0.9-0.1,1.9-0.1,2.9c0,0,0,0,0,0c-0.4,0-0.8,0-1.2,0c0,0,0,0,0-0.1c0-0.4,0-0.8,0-1.2c0-0.6,0-1.1-0.1-1.7
	c0-0.5-0.1-0.9-0.1-1.4c-0.1-0.6-0.2-1.3-0.3-1.9c-0.1-0.5-0.2-1.1-0.4-1.6c-0.1-0.3-0.2-0.5-0.4-0.8c0-0.1-0.1-0.1-0.2-0.2
	c-0.2-0.1-0.3-0.1-0.5,0c-0.1,0.1-0.2,0.2-0.2,0.3c-0.2,0.4-0.3,0.7-0.4,1.1c-0.2,0.7-0.3,1.3-0.4,2c-0.1,0.5-0.2,1.1-0.2,1.7
	c0,0.4-0.1,0.7-0.1,1.1c0,0.8-0.1,1.6-0.1,2.4c0,0.4,0,0.7,0,1c0,0,0,0.1,0,0.1h-1.2c0,0,0,0,0,0c0-0.7,0-1.3,0-2
	c0-0.4,0-0.9,0.1-1.3c0.1-0.9,0.2-1.8,0.4-2.6c0.2-0.8,0.4-1.5,0.6-2.2c0.2-0.5,0.4-0.9,0.7-1.4c0.2-0.2,0.3-0.4,0.5-0.6
	c0.5-0.4,0.9-0.4,1.4,0c0.3,0.3,0.6,0.6,0.8,1c0.4,0.6,0.6,1.3,0.7,2C83,59.1,83,59.3,83.1,59.3L83.1,59.3"/>
<polygon class="st6" points="13.3,36.1 49.6,36.1 68.8,68.5 68.8,129 0,129 0,68.5 "/>
<polygon class="st7" points="41.5,68.5 49.6,36.1 68.8,68.5 "/>
<rect x="41.5" y="68.5" class="st7" width="27.3" height="60.3"/>
<polygon class="st8" points="49.5,36.2 45.3,53.4 68.8,68.5 "/>
<polygon class="st3" points="28.4,65.4 37.1,36.1 23.1,36.1 14.4,65.4 "/>
<path class="st9" d="M21.9,105.4C21.9,105.4,21.9,105.4,21.9,105.4c-0.1-0.2-0.1-0.4-0.2-0.5c-0.4-1.3-0.8-2.7-1.4-3.9
	c-0.4-0.7-0.9-1.4-1.5-1.9c-0.9-0.7-1.8-0.7-2.7,0c-0.4,0.3-0.7,0.7-0.9,1.1c-0.5,0.8-0.9,1.7-1.3,2.6c-0.5,1.4-0.9,2.8-1.1,4.3
	c-0.3,1.6-0.5,3.3-0.7,5c-0.1,0.9-0.2,1.7-0.2,2.5c-0.1,1.2-0.1,2.5-0.1,3.7c0,0.1,0,0.1,0.1,0.1h2.4c0.1,0,0.1,0,0.1-0.1
	c0-0.6,0-1.3,0-1.9c0-1.5,0.1-3,0.2-4.5c0-0.7,0.1-1.4,0.2-2.2c0.1-1.1,0.2-2.2,0.4-3.2c0.2-1.3,0.4-2.5,0.7-3.8
	c0.2-0.7,0.4-1.4,0.8-2c0.1-0.2,0.3-0.4,0.4-0.5c0.3-0.2,0.6-0.2,0.9,0c0.1,0.1,0.2,0.2,0.4,0.4c0.3,0.5,0.5,1,0.7,1.5
	c0.4,1,0.6,2.1,0.8,3.1c0.2,1.2,0.4,2.4,0.5,3.6c0.1,0.9,0.2,1.7,0.2,2.6c0.1,1.1,0.1,2.2,0.2,3.3c0,0.8,0,1.5,0,2.3
	c0,0.1,0,0.1,0.1,0.1c0.8,0,1.6,0,2.4,0c0.1,0,0.1,0,0.1-0.1c0-1.8,0-3.6,0.2-5.5c0-0.9,0.1-1.7,0.2-2.6c0.1-1,0.2-2,0.4-2.9
	c0.2-1.1,0.4-2.2,0.7-3.2c0.2-0.7,0.4-1.3,0.7-1.9c0.1-0.2,0.3-0.5,0.5-0.7c0.4-0.3,0.7-0.3,1.1,0c0.2,0.2,0.3,0.4,0.4,0.6
	c0.3,0.6,0.5,1.3,0.7,1.9c0.4,1.5,0.7,3.1,0.9,4.7c0.2,1.3,0.3,2.7,0.4,4c0.1,1.3,0.2,2.5,0.2,3.8c0,1,0,2,0,3c0,0.1,0,0.2,0.1,0.2
	h2.3c0.1,0,0.2,0,0.2-0.2c0-1.5,0-3.1-0.2-4.6c0-0.8-0.1-1.6-0.2-2.4c-0.1-1-0.2-2-0.4-3c-0.3-1.6-0.6-3.1-1.1-4.7
	c-0.4-1.1-0.8-2.3-1.4-3.3c-0.3-0.5-0.7-1-1.2-1.4c-0.5-0.4-1-0.5-1.6-0.4c-0.4,0.1-0.8,0.4-1.2,0.7c-0.6,0.5-1,1.3-1.4,2
	c-0.6,1.1-1,2.4-1.3,3.6C22,105.1,22,105.2,21.9,105.4"/>
<path class="st5" d="M21.9,105.4c0-0.2,0.1-0.4,0.1-0.5c0.4-1.3,0.7-2.5,1.3-3.6c0.4-0.7,0.8-1.4,1.4-2c0.4-0.3,0.7-0.5,1.2-0.7
	c0.6-0.1,1.1,0,1.6,0.4c0.5,0.4,0.9,0.8,1.2,1.4c0.6,1,1.1,2.1,1.4,3.3c0.5,1.5,0.8,3.1,1.1,4.7c0.2,1,0.3,2,0.4,3
	c0.1,0.8,0.2,1.6,0.2,2.4c0.1,1.5,0.2,3.1,0.2,4.6c0,0.1,0,0.2-0.2,0.2h-2.3c-0.1,0-0.1,0-0.1-0.2c0-1,0-2,0-3
	c0-1.3-0.1-2.5-0.2-3.8c-0.1-1.4-0.2-2.7-0.4-4c-0.2-1.6-0.4-3.1-0.9-4.7c-0.2-0.7-0.4-1.3-0.7-1.9c-0.1-0.2-0.2-0.4-0.4-0.6
	c-0.3-0.3-0.7-0.4-1.1,0c-0.2,0.2-0.4,0.4-0.5,0.7c-0.3,0.6-0.5,1.2-0.7,1.9c-0.3,1.1-0.5,2.1-0.7,3.2c-0.2,1-0.3,2-0.4,2.9
	c-0.1,0.9-0.2,1.7-0.2,2.6c-0.1,1.8-0.2,3.6-0.2,5.5c0,0.1,0,0.1-0.1,0.1c-0.8,0-1.6,0-2.4,0c-0.1,0-0.1,0-0.1-0.1
	c0-0.8,0-1.5,0-2.3c0-1.1-0.1-2.2-0.2-3.3c0-0.9-0.1-1.7-0.2-2.6c-0.1-1.2-0.3-2.4-0.5-3.6c-0.2-1.1-0.4-2.2-0.8-3.1
	c-0.2-0.5-0.4-1.1-0.7-1.5c-0.1-0.1-0.2-0.3-0.4-0.4c-0.3-0.2-0.6-0.2-0.9,0c-0.2,0.2-0.3,0.4-0.4,0.5c-0.4,0.6-0.6,1.3-0.8,2
	c-0.4,1.3-0.5,2.5-0.7,3.8c-0.2,1.1-0.3,2.1-0.4,3.2c-0.1,0.7-0.1,1.4-0.2,2.2c-0.1,1.5-0.2,3-0.2,4.5c0,0.6,0,1.3,0,1.9
	c0,0.1,0,0.1-0.1,0.1h-2.4c-0.1,0-0.1,0-0.1-0.1c0-1.3,0-2.5,0.1-3.7c0-0.9,0.1-1.7,0.2-2.5c0.2-1.7,0.4-3.4,0.7-5
	c0.3-1.4,0.7-2.9,1.1-4.3c0.4-0.9,0.7-1.8,1.3-2.6c0.3-0.4,0.5-0.8,0.9-1.1c0.9-0.7,1.8-0.7,2.7,0c0.6,0.5,1.1,1.2,1.5,1.9
	c0.7,1.2,1.1,2.5,1.4,3.9C21.8,105,21.9,105.2,21.9,105.4C21.9,105.4,21.9,105.4,21.9,105.4"/>
<polygon class="st10" points="132.1,80.3 123.8,80.3 74.8,80.3 66.5,80.3 53.2,105.6 64,129 77.7,129 84.8,129 89.8,129 120.9,129 
	134.7,129 143.8,105.6 "/>
<polygon class="st11" points="53.2,105.5 53.2,105.6 64,129 77.7,129 84.8,129 89.8,129 120.9,129 134.7,129 143.8,105.6 
	143.8,105.5 "/>
<polygon class="st12" points="91.9,105.7 101.2,80.3 74.8,80.3 66.5,80.3 53.2,105.6 64,129 77.7,129 84.8,129 89.8,129 98.6,129 
	"/>
<polygon class="st3" points="86.6,100.4 93.9,80.3 83.7,80.3 76.4,80.3 75.3,80.3 64.8,100.4 "/>
<polygon class="st13" points="92,105.5 53.2,105.5 53.2,105.6 64,129 77.7,129 84.8,129 89.8,129 98.6,129 91.9,105.7 "/>
<path class="st5" d="M80.7,89.6c0.1-0.1,0.2-0.2,0.2-0.3c0.5-0.7,1.1-1.3,1.7-2c0.4-0.4,0.9-0.8,1.4-1.1c0.3-0.2,0.6-0.3,0.9-0.4
	c0.4-0.1,0.7,0,0.9,0.2c0.2,0.2,0.4,0.5,0.5,0.7c0.2,0.5,0.2,1.1,0.2,1.8c0,0.8-0.2,1.7-0.4,2.5c-0.1,0.5-0.3,1.1-0.4,1.6
	c-0.1,0.4-0.3,0.9-0.4,1.3c-0.3,0.8-0.6,1.6-0.9,2.5c0,0.1,0,0.1-0.2,0.1c-0.5,0-1,0-1.5,0c-0.1,0-0.1,0,0-0.1
	c0.2-0.5,0.5-1.1,0.7-1.6c0.3-0.7,0.5-1.4,0.7-2.1c0.2-0.7,0.5-1.4,0.7-2.2c0.2-0.9,0.4-1.7,0.5-2.5c0-0.4,0-0.7,0-1.1
	c0-0.1-0.1-0.2-0.1-0.3c-0.2-0.2-0.4-0.2-0.7,0c-0.2,0.1-0.3,0.2-0.5,0.4c-0.4,0.3-0.6,0.7-0.9,1c-0.4,0.5-0.8,1.1-1.2,1.7
	c-0.3,0.5-0.6,1.1-0.9,1.6c-0.3,0.5-0.5,0.9-0.7,1.4c-0.5,1-0.9,2-1.4,3c0,0,0,0-0.1,0c-0.5,0-1,0-1.5,0c0,0,0,0,0-0.1
	c0.2-0.4,0.4-0.8,0.5-1.3c0.2-0.6,0.4-1.2,0.7-1.8c0.2-0.5,0.3-0.9,0.5-1.4c0.2-0.7,0.4-1.3,0.5-2c0.1-0.6,0.2-1.1,0.2-1.7
	c0-0.3,0-0.6-0.1-0.8c0-0.1-0.1-0.2-0.2-0.2c-0.2-0.1-0.4-0.1-0.6,0c-0.2,0.1-0.3,0.2-0.4,0.3c-0.4,0.4-0.7,0.7-1,1.1
	c-0.5,0.7-0.9,1.3-1.4,2c-0.4,0.6-0.7,1.1-1,1.7c-0.2,0.4-0.4,0.8-0.6,1.2c-0.4,0.8-0.8,1.6-1.2,2.4c-0.2,0.4-0.3,0.7-0.5,1
	c0,0,0,0.1-0.1,0.1c-0.5,0-1,0-1.5,0c0,0,0,0,0-0.1c0.3-0.7,0.6-1.3,0.9-2c0.2-0.5,0.5-0.9,0.7-1.4c0.5-0.9,1.1-1.8,1.6-2.7
	c0.5-0.8,1.1-1.6,1.8-2.3c0.4-0.5,0.9-1,1.4-1.4c0.3-0.2,0.5-0.4,0.9-0.6c0.7-0.4,1.3-0.4,1.8,0c0.3,0.3,0.4,0.6,0.5,1
	c0.2,0.7,0.1,1.4,0.1,2.1C80.7,89.4,80.7,89.5,80.7,89.6L80.7,89.6"/>
</svg>
