<svg id="Layer_1" data-name="Layer 1" xmlns="http://www.w3.org/2000/svg" viewBox="0 0 35.91 29.79"><defs><style>.cls-1{fill:#fcfcfc;}.cls-2{fill:#95332c;}.cls-3{fill:#d7b940;}</style></defs><title>sauces</title><g id="TarcwF.tif"><path class="cls-1" d="M22.11,13.8c-.22-.2-.45-.39-.66-.61L9.22.8C8.16-.28,8.17-.26,7.08.81c-.36.35-.39.57,0,.93.83.78,1.61,1.62,2.42,2.43Q15.27,10,21.05,15.82a8.16,8.16,0,0,1-2.91,1.74c-1.52.67-3.15,1.06-4.72,1.6a3.64,3.64,0,0,0,.8.06H26.39c1.08,0,1.19-.14.86-1.19a4.51,4.51,0,0,0-.52-1.14,12.09,12.09,0,0,0-4.57-3.79ZM4.3,20.08c-1.21,0-2.41,0-3.61,0-.66,0-.75.21-.66.77a6.36,6.36,0,0,0,1.41,3.08A12.08,12.08,0,0,0,6,27.32a30.05,30.05,0,0,0,20.82,1.15,15.52,15.52,0,0,0,7-3.9,6.86,6.86,0,0,0,2-3.57c.12-.64.06-1-.76-.94-2.37.06-4.75,0-7.13,0a4.67,4.67,0,0,1-.68-.06c.06-.95-.68-.5-1-.5-4.66,0-9.33,0-14,0a4.81,4.81,0,0,0-1.26.06A24.11,24.11,0,0,1,4.3,20.08Z"/><path class="cls-2" d="M4.3,20.08A24.11,24.11,0,0,0,11,19.56a4.81,4.81,0,0,1,1.26-.06c4.67,0,9.34,0,14,0,.33,0,1.07-.45,1,.5a4.67,4.67,0,0,0,.68.06c2.38,0,4.76,0,7.13,0,.82,0,.88.3.76.94a6.86,6.86,0,0,1-2,3.57,15.52,15.52,0,0,1-7,3.9A30.05,30.05,0,0,1,6,27.32a12.08,12.08,0,0,1-4.6-3.4A6.36,6.36,0,0,1,0,20.84c-.09-.56,0-.8.66-.77C1.89,20.12,3.09,20.08,4.3,20.08Zm2.81,7.19a.74.74,0,0,0-.5-.59c-2.27-1.33-4.15-3-4.8-5.67a.42.42,0,0,0-.41-.38c-.78-.11-1,.05-.71.79C1.72,24.5,4.28,25.9,7.11,27.27Z"/><path class="cls-3" d="M21.05,15.82Q15.26,10,9.49,4.17C8.68,3.36,7.9,2.52,7.07,1.74c-.38-.36-.35-.58,0-.93C8.17-.26,8.16-.28,9.22.8L21.45,13.19c.21.22.44.41.66.61A2.18,2.18,0,0,1,21.05,15.82Z"/><path class="cls-2" d="M21.05,15.82a2.18,2.18,0,0,0,1.06-2l.05-.7a12.09,12.09,0,0,1,4.57,3.79A4.51,4.51,0,0,1,27.25,18c.33,1,.22,1.19-.86,1.19H14.22a3.64,3.64,0,0,1-.8-.06c1.57-.54,3.2-.93,4.72-1.6A8.16,8.16,0,0,0,21.05,15.82Z"/><path class="cls-1" d="M7.11,27.27C4.28,25.9,1.72,24.5.69,21.42c-.25-.74-.07-.9.71-.79a.42.42,0,0,1,.41.38c.65,2.69,2.53,4.34,4.8,5.67A.74.74,0,0,1,7.11,27.27Z"/></g></svg>